<?xml version="1.0" encoding="utf-8" standalone="no"?>
<!DOCTYPE svg PUBLIC "-//W3C//DTD SVG 1.1//EN"
  "http://www.w3.org/Graphics/SVG/1.1/DTD/svg11.dtd">
<svg height="310.86825pt" version="1.1" viewBox="0 0 408.10125 310.86825" width="408.10125pt" xmlns="http://www.w3.org/2000/svg" xmlns:xlink="http://www.w3.org/1999/xlink">
 <metadata>
  <rdf:RDF xmlns:cc="http://creativecommons.org/ns#" xmlns:dc="http://purl.org/dc/elements/1.1/" xmlns:rdf="http://www.w3.org/1999/02/22-rdf-syntax-ns#">
   <cc:Work>
    <dc:type rdf:resource="http://purl.org/dc/dcmitype/StillImage"/>
    <dc:date>2021-06-18T12:39:15.735951</dc:date>
    <dc:format>image/svg+xml</dc:format>
    <dc:creator>
     <cc:Agent>
      <dc:title>Matplotlib v3.4.2, https://matplotlib.org/</dc:title>
     </cc:Agent>
    </dc:creator>
   </cc:Work>
  </rdf:RDF>
 </metadata>
 <defs>
  <style type="text/css">*{stroke-linecap:butt;stroke-linejoin:round;}</style>
 </defs>
 <g id="figure_1">
  <g id="patch_1">
   <path d="M 0 310.86825 
L 408.10125 310.86825 
L 408.10125 0 
L 0 0 
z
" style="fill:#ffffff;"/>
  </g>
  <g id="axes_1">
   <g id="patch_2">
    <path d="M 43.78125 273.312 
L 400.90125 273.312 
L 400.90125 7.2 
L 43.78125 7.2 
z
" style="fill:#ffffff;"/>
   </g>
   <g id="patch_3">
    <path clip-path="url(#p9994d883c4)" d="M 60.576775 273.312 
L 62.19122 273.312 
L 62.19122 270.526945 
L 60.576775 270.526945 
z
" style="fill:#1f77b4;"/>
   </g>
   <g id="patch_4">
    <path clip-path="url(#p9994d883c4)" d="M 62.19122 273.312 
L 63.805665 273.312 
L 63.805665 266.349363 
L 62.19122 266.349363 
z
" style="fill:#1f77b4;"/>
   </g>
   <g id="patch_5">
    <path clip-path="url(#p9994d883c4)" d="M 63.805665 273.312 
L 65.420111 273.312 
L 65.420111 265.653099 
L 63.805665 265.653099 
z
" style="fill:#1f77b4;"/>
   </g>
   <g id="patch_6">
    <path clip-path="url(#p9994d883c4)" d="M 65.420111 273.312 
L 67.034556 273.312 
L 67.034556 260.779253 
L 65.420111 260.779253 
z
" style="fill:#1f77b4;"/>
   </g>
   <g id="patch_7">
    <path clip-path="url(#p9994d883c4)" d="M 67.034556 273.312 
L 68.649002 273.312 
L 68.649002 253.120352 
L 67.034556 253.120352 
z
" style="fill:#1f77b4;"/>
   </g>
   <g id="patch_8">
    <path clip-path="url(#p9994d883c4)" d="M 68.649002 273.312 
L 70.263447 273.312 
L 70.263447 253.120352 
L 68.649002 253.120352 
z
" style="fill:#1f77b4;"/>
   </g>
   <g id="patch_9">
    <path clip-path="url(#p9994d883c4)" d="M 70.263447 273.312 
L 71.877893 273.312 
L 71.877893 248.942769 
L 70.263447 248.942769 
z
" style="fill:#1f77b4;"/>
   </g>
   <g id="patch_10">
    <path clip-path="url(#p9994d883c4)" d="M 71.877893 273.312 
L 73.492338 273.312 
L 73.492338 247.550242 
L 71.877893 247.550242 
z
" style="fill:#1f77b4;"/>
   </g>
   <g id="patch_11">
    <path clip-path="url(#p9994d883c4)" d="M 73.492338 273.312 
L 75.106783 273.312 
L 75.106783 247.550242 
L 73.492338 247.550242 
z
" style="fill:#1f77b4;"/>
   </g>
   <g id="patch_12">
    <path clip-path="url(#p9994d883c4)" d="M 75.106783 273.312 
L 76.721229 273.312 
L 76.721229 243.372659 
L 75.106783 243.372659 
z
" style="fill:#1f77b4;"/>
   </g>
   <g id="patch_13">
    <path clip-path="url(#p9994d883c4)" d="M 76.721229 273.312 
L 78.335674 273.312 
L 78.335674 241.283868 
L 76.721229 241.283868 
z
" style="fill:#1f77b4;"/>
   </g>
   <g id="patch_14">
    <path clip-path="url(#p9994d883c4)" d="M 78.335674 273.312 
L 79.95012 273.312 
L 79.95012 236.410022 
L 78.335674 236.410022 
z
" style="fill:#1f77b4;"/>
   </g>
   <g id="patch_15">
    <path clip-path="url(#p9994d883c4)" d="M 79.95012 273.312 
L 81.564565 273.312 
L 81.564565 223.181011 
L 79.95012 223.181011 
z
" style="fill:#1f77b4;"/>
   </g>
   <g id="patch_16">
    <path clip-path="url(#p9994d883c4)" d="M 81.564565 273.312 
L 83.179011 273.312 
L 83.179011 223.181011 
L 81.564565 223.181011 
z
" style="fill:#1f77b4;"/>
   </g>
   <g id="patch_17">
    <path clip-path="url(#p9994d883c4)" d="M 83.179011 273.312 
L 84.793456 273.312 
L 84.793456 219.699692 
L 83.179011 219.699692 
z
" style="fill:#1f77b4;"/>
   </g>
   <g id="patch_18">
    <path clip-path="url(#p9994d883c4)" d="M 84.793456 273.312 
L 86.407901 273.312 
L 86.407901 227.358593 
L 84.793456 227.358593 
z
" style="fill:#1f77b4;"/>
   </g>
   <g id="patch_19">
    <path clip-path="url(#p9994d883c4)" d="M 86.407901 273.312 
L 88.022347 273.312 
L 88.022347 220.395956 
L 86.407901 220.395956 
z
" style="fill:#1f77b4;"/>
   </g>
   <g id="patch_20">
    <path clip-path="url(#p9994d883c4)" d="M 88.022347 273.312 
L 89.636792 273.312 
L 89.636792 215.52211 
L 88.022347 215.52211 
z
" style="fill:#1f77b4;"/>
   </g>
   <g id="patch_21">
    <path clip-path="url(#p9994d883c4)" d="M 89.636792 273.312 
L 91.251238 273.312 
L 91.251238 209.952 
L 89.636792 209.952 
z
" style="fill:#1f77b4;"/>
   </g>
   <g id="patch_22">
    <path clip-path="url(#p9994d883c4)" d="M 91.251238 273.312 
L 92.865683 273.312 
L 92.865683 205.078154 
L 91.251238 205.078154 
z
" style="fill:#1f77b4;"/>
   </g>
   <g id="patch_23">
    <path clip-path="url(#p9994d883c4)" d="M 92.865683 273.312 
L 94.480129 273.312 
L 94.480129 214.825846 
L 92.865683 214.825846 
z
" style="fill:#1f77b4;"/>
   </g>
   <g id="patch_24">
    <path clip-path="url(#p9994d883c4)" d="M 94.480129 273.312 
L 96.094574 273.312 
L 96.094574 212.040791 
L 94.480129 212.040791 
z
" style="fill:#1f77b4;"/>
   </g>
   <g id="patch_25">
    <path clip-path="url(#p9994d883c4)" d="M 96.094574 273.312 
L 97.709019 273.312 
L 97.709019 198.115516 
L 96.094574 198.115516 
z
" style="fill:#1f77b4;"/>
   </g>
   <g id="patch_26">
    <path clip-path="url(#p9994d883c4)" d="M 97.709019 273.312 
L 99.323465 273.312 
L 99.323465 191.849143 
L 97.709019 191.849143 
z
" style="fill:#1f77b4;"/>
   </g>
   <g id="patch_27">
    <path clip-path="url(#p9994d883c4)" d="M 99.323465 273.312 
L 100.93791 273.312 
L 100.93791 192.545407 
L 99.323465 192.545407 
z
" style="fill:#1f77b4;"/>
   </g>
   <g id="patch_28">
    <path clip-path="url(#p9994d883c4)" d="M 100.93791 273.312 
L 102.552356 273.312 
L 102.552356 207.166945 
L 100.93791 207.166945 
z
" style="fill:#1f77b4;"/>
   </g>
   <g id="patch_29">
    <path clip-path="url(#p9994d883c4)" d="M 102.552356 273.312 
L 104.166801 273.312 
L 104.166801 171.657495 
L 102.552356 171.657495 
z
" style="fill:#1f77b4;"/>
   </g>
   <g id="patch_30">
    <path clip-path="url(#p9994d883c4)" d="M 104.166801 273.312 
L 105.781246 273.312 
L 105.781246 186.975297 
L 104.166801 186.975297 
z
" style="fill:#1f77b4;"/>
   </g>
   <g id="patch_31">
    <path clip-path="url(#p9994d883c4)" d="M 105.781246 273.312 
L 107.395692 273.312 
L 107.395692 196.026725 
L 105.781246 196.026725 
z
" style="fill:#1f77b4;"/>
   </g>
   <g id="patch_32">
    <path clip-path="url(#p9994d883c4)" d="M 107.395692 273.312 
L 109.010137 273.312 
L 109.010137 182.101451 
L 107.395692 182.101451 
z
" style="fill:#1f77b4;"/>
   </g>
   <g id="patch_33">
    <path clip-path="url(#p9994d883c4)" d="M 109.010137 273.312 
L 110.624583 273.312 
L 110.624583 184.190242 
L 109.010137 184.190242 
z
" style="fill:#1f77b4;"/>
   </g>
   <g id="patch_34">
    <path clip-path="url(#p9994d883c4)" d="M 110.624583 273.312 
L 112.239028 273.312 
L 112.239028 176.531341 
L 110.624583 176.531341 
z
" style="fill:#1f77b4;"/>
   </g>
   <g id="patch_35">
    <path clip-path="url(#p9994d883c4)" d="M 112.239028 273.312 
L 113.853474 273.312 
L 113.853474 166.783648 
L 112.239028 166.783648 
z
" style="fill:#1f77b4;"/>
   </g>
   <g id="patch_36">
    <path clip-path="url(#p9994d883c4)" d="M 113.853474 273.312 
L 115.467919 273.312 
L 115.467919 171.657495 
L 113.853474 171.657495 
z
" style="fill:#1f77b4;"/>
   </g>
   <g id="patch_37">
    <path clip-path="url(#p9994d883c4)" d="M 115.467919 273.312 
L 117.082364 273.312 
L 117.082364 163.998593 
L 115.467919 163.998593 
z
" style="fill:#1f77b4;"/>
   </g>
   <g id="patch_38">
    <path clip-path="url(#p9994d883c4)" d="M 117.082364 273.312 
L 118.69681 273.312 
L 118.69681 171.657495 
L 117.082364 171.657495 
z
" style="fill:#1f77b4;"/>
   </g>
   <g id="patch_39">
    <path clip-path="url(#p9994d883c4)" d="M 118.69681 273.312 
L 120.311255 273.312 
L 120.311255 151.465846 
L 118.69681 151.465846 
z
" style="fill:#1f77b4;"/>
   </g>
   <g id="patch_40">
    <path clip-path="url(#p9994d883c4)" d="M 120.311255 273.312 
L 121.925701 273.312 
L 121.925701 156.339692 
L 120.311255 156.339692 
z
" style="fill:#1f77b4;"/>
   </g>
   <g id="patch_41">
    <path clip-path="url(#p9994d883c4)" d="M 121.925701 273.312 
L 123.540146 273.312 
L 123.540146 151.465846 
L 121.925701 151.465846 
z
" style="fill:#1f77b4;"/>
   </g>
   <g id="patch_42">
    <path clip-path="url(#p9994d883c4)" d="M 123.540146 273.312 
L 125.154592 273.312 
L 125.154592 127.792879 
L 123.540146 127.792879 
z
" style="fill:#1f77b4;"/>
   </g>
   <g id="patch_43">
    <path clip-path="url(#p9994d883c4)" d="M 125.154592 273.312 
L 126.769037 273.312 
L 126.769037 146.592 
L 125.154592 146.592 
z
" style="fill:#1f77b4;"/>
   </g>
   <g id="patch_44">
    <path clip-path="url(#p9994d883c4)" d="M 126.769037 273.312 
L 128.383482 273.312 
L 128.383482 136.844308 
L 126.769037 136.844308 
z
" style="fill:#1f77b4;"/>
   </g>
   <g id="patch_45">
    <path clip-path="url(#p9994d883c4)" d="M 128.383482 273.312 
L 129.997928 273.312 
L 129.997928 121.526505 
L 128.383482 121.526505 
z
" style="fill:#1f77b4;"/>
   </g>
   <g id="patch_46">
    <path clip-path="url(#p9994d883c4)" d="M 129.997928 273.312 
L 131.612373 273.312 
L 131.612373 149.377055 
L 129.997928 149.377055 
z
" style="fill:#1f77b4;"/>
   </g>
   <g id="patch_47">
    <path clip-path="url(#p9994d883c4)" d="M 131.612373 273.312 
L 133.226819 273.312 
L 133.226819 119.437714 
L 131.612373 119.437714 
z
" style="fill:#1f77b4;"/>
   </g>
   <g id="patch_48">
    <path clip-path="url(#p9994d883c4)" d="M 133.226819 273.312 
L 134.841264 273.312 
L 134.841264 122.222769 
L 133.226819 122.222769 
z
" style="fill:#1f77b4;"/>
   </g>
   <g id="patch_49">
    <path clip-path="url(#p9994d883c4)" d="M 134.841264 273.312 
L 136.45571 273.312 
L 136.45571 127.096615 
L 134.841264 127.096615 
z
" style="fill:#1f77b4;"/>
   </g>
   <g id="patch_50">
    <path clip-path="url(#p9994d883c4)" d="M 136.45571 273.312 
L 138.070155 273.312 
L 138.070155 117.348923 
L 136.45571 117.348923 
z
" style="fill:#1f77b4;"/>
   </g>
   <g id="patch_51">
    <path clip-path="url(#p9994d883c4)" d="M 138.070155 273.312 
L 139.6846 273.312 
L 139.6846 129.185407 
L 138.070155 129.185407 
z
" style="fill:#1f77b4;"/>
   </g>
   <g id="patch_52">
    <path clip-path="url(#p9994d883c4)" d="M 139.6846 273.312 
L 141.299046 273.312 
L 141.299046 132.666725 
L 139.6846 132.666725 
z
" style="fill:#1f77b4;"/>
   </g>
   <g id="patch_53">
    <path clip-path="url(#p9994d883c4)" d="M 141.299046 273.312 
L 142.913491 273.312 
L 142.913491 107.601231 
L 141.299046 107.601231 
z
" style="fill:#1f77b4;"/>
   </g>
   <g id="patch_54">
    <path clip-path="url(#p9994d883c4)" d="M 142.913491 273.312 
L 144.527937 273.312 
L 144.527937 113.171341 
L 142.913491 113.171341 
z
" style="fill:#1f77b4;"/>
   </g>
   <g id="patch_55">
    <path clip-path="url(#p9994d883c4)" d="M 144.527937 273.312 
L 146.142382 273.312 
L 146.142382 101.334857 
L 144.527937 101.334857 
z
" style="fill:#1f77b4;"/>
   </g>
   <g id="patch_56">
    <path clip-path="url(#p9994d883c4)" d="M 146.142382 273.312 
L 147.756827 273.312 
L 147.756827 115.260132 
L 146.142382 115.260132 
z
" style="fill:#1f77b4;"/>
   </g>
   <g id="patch_57">
    <path clip-path="url(#p9994d883c4)" d="M 147.756827 273.312 
L 149.371273 273.312 
L 149.371273 104.816176 
L 147.756827 104.816176 
z
" style="fill:#1f77b4;"/>
   </g>
   <g id="patch_58">
    <path clip-path="url(#p9994d883c4)" d="M 149.371273 273.312 
L 150.985718 273.312 
L 150.985718 108.993758 
L 149.371273 108.993758 
z
" style="fill:#1f77b4;"/>
   </g>
   <g id="patch_59">
    <path clip-path="url(#p9994d883c4)" d="M 150.985718 273.312 
L 152.600164 273.312 
L 152.600164 98.549802 
L 150.985718 98.549802 
z
" style="fill:#1f77b4;"/>
   </g>
   <g id="patch_60">
    <path clip-path="url(#p9994d883c4)" d="M 152.600164 273.312 
L 154.214609 273.312 
L 154.214609 107.601231 
L 152.600164 107.601231 
z
" style="fill:#1f77b4;"/>
   </g>
   <g id="patch_61">
    <path clip-path="url(#p9994d883c4)" d="M 154.214609 273.312 
L 155.829055 273.312 
L 155.829055 98.549802 
L 154.214609 98.549802 
z
" style="fill:#1f77b4;"/>
   </g>
   <g id="patch_62">
    <path clip-path="url(#p9994d883c4)" d="M 155.829055 273.312 
L 157.4435 273.312 
L 157.4435 79.054418 
L 155.829055 79.054418 
z
" style="fill:#1f77b4;"/>
   </g>
   <g id="patch_63">
    <path clip-path="url(#p9994d883c4)" d="M 157.4435 273.312 
L 159.057945 273.312 
L 159.057945 92.979692 
L 157.4435 92.979692 
z
" style="fill:#1f77b4;"/>
   </g>
   <g id="patch_64">
    <path clip-path="url(#p9994d883c4)" d="M 159.057945 273.312 
L 160.672391 273.312 
L 160.672391 104.119912 
L 159.057945 104.119912 
z
" style="fill:#1f77b4;"/>
   </g>
   <g id="patch_65">
    <path clip-path="url(#p9994d883c4)" d="M 160.672391 273.312 
L 162.286836 273.312 
L 162.286836 102.031121 
L 160.672391 102.031121 
z
" style="fill:#1f77b4;"/>
   </g>
   <g id="patch_66">
    <path clip-path="url(#p9994d883c4)" d="M 162.286836 273.312 
L 163.901282 273.312 
L 163.901282 78.358154 
L 162.286836 78.358154 
z
" style="fill:#1f77b4;"/>
   </g>
   <g id="patch_67">
    <path clip-path="url(#p9994d883c4)" d="M 163.901282 273.312 
L 165.515727 273.312 
L 165.515727 84.624527 
L 163.901282 84.624527 
z
" style="fill:#1f77b4;"/>
   </g>
   <g id="patch_68">
    <path clip-path="url(#p9994d883c4)" d="M 165.515727 273.312 
L 167.130173 273.312 
L 167.130173 92.979692 
L 165.515727 92.979692 
z
" style="fill:#1f77b4;"/>
   </g>
   <g id="patch_69">
    <path clip-path="url(#p9994d883c4)" d="M 167.130173 273.312 
L 168.744618 273.312 
L 168.744618 79.054418 
L 167.130173 79.054418 
z
" style="fill:#1f77b4;"/>
   </g>
   <g id="patch_70">
    <path clip-path="url(#p9994d883c4)" d="M 168.744618 273.312 
L 170.359063 273.312 
L 170.359063 74.180571 
L 168.744618 74.180571 
z
" style="fill:#1f77b4;"/>
   </g>
   <g id="patch_71">
    <path clip-path="url(#p9994d883c4)" d="M 170.359063 273.312 
L 171.973509 273.312 
L 171.973509 73.484308 
L 170.359063 73.484308 
z
" style="fill:#1f77b4;"/>
   </g>
   <g id="patch_72">
    <path clip-path="url(#p9994d883c4)" d="M 171.973509 273.312 
L 173.587954 273.312 
L 173.587954 77.66189 
L 171.973509 77.66189 
z
" style="fill:#1f77b4;"/>
   </g>
   <g id="patch_73">
    <path clip-path="url(#p9994d883c4)" d="M 173.587954 273.312 
L 175.2024 273.312 
L 175.2024 79.750681 
L 173.587954 79.750681 
z
" style="fill:#1f77b4;"/>
   </g>
   <g id="patch_74">
    <path clip-path="url(#p9994d883c4)" d="M 175.2024 273.312 
L 176.816845 273.312 
L 176.816845 90.890901 
L 175.2024 90.890901 
z
" style="fill:#1f77b4;"/>
   </g>
   <g id="patch_75">
    <path clip-path="url(#p9994d883c4)" d="M 176.816845 273.312 
L 178.431291 273.312 
L 178.431291 51.900132 
L 176.816845 51.900132 
z
" style="fill:#1f77b4;"/>
   </g>
   <g id="patch_76">
    <path clip-path="url(#p9994d883c4)" d="M 178.431291 273.312 
L 180.045736 273.312 
L 180.045736 76.965626 
L 178.431291 76.965626 
z
" style="fill:#1f77b4;"/>
   </g>
   <g id="patch_77">
    <path clip-path="url(#p9994d883c4)" d="M 180.045736 273.312 
L 181.660181 273.312 
L 181.660181 76.269363 
L 180.045736 76.269363 
z
" style="fill:#1f77b4;"/>
   </g>
   <g id="patch_78">
    <path clip-path="url(#p9994d883c4)" d="M 181.660181 273.312 
L 183.274627 273.312 
L 183.274627 71.395516 
L 181.660181 71.395516 
z
" style="fill:#1f77b4;"/>
   </g>
   <g id="patch_79">
    <path clip-path="url(#p9994d883c4)" d="M 183.274627 273.312 
L 184.889072 273.312 
L 184.889072 67.914198 
L 183.274627 67.914198 
z
" style="fill:#1f77b4;"/>
   </g>
   <g id="patch_80">
    <path clip-path="url(#p9994d883c4)" d="M 184.889072 273.312 
L 186.503518 273.312 
L 186.503518 90.194637 
L 184.889072 90.194637 
z
" style="fill:#1f77b4;"/>
   </g>
   <g id="patch_81">
    <path clip-path="url(#p9994d883c4)" d="M 186.503518 273.312 
L 188.117963 273.312 
L 188.117963 70.002989 
L 186.503518 70.002989 
z
" style="fill:#1f77b4;"/>
   </g>
   <g id="patch_82">
    <path clip-path="url(#p9994d883c4)" d="M 188.117963 273.312 
L 189.732408 273.312 
L 189.732408 66.52167 
L 188.117963 66.52167 
z
" style="fill:#1f77b4;"/>
   </g>
   <g id="patch_83">
    <path clip-path="url(#p9994d883c4)" d="M 189.732408 273.312 
L 191.346854 273.312 
L 191.346854 81.143209 
L 189.732408 81.143209 
z
" style="fill:#1f77b4;"/>
   </g>
   <g id="patch_84">
    <path clip-path="url(#p9994d883c4)" d="M 191.346854 273.312 
L 192.961299 273.312 
L 192.961299 44.937495 
L 191.346854 44.937495 
z
" style="fill:#1f77b4;"/>
   </g>
   <g id="patch_85">
    <path clip-path="url(#p9994d883c4)" d="M 192.961299 273.312 
L 194.575745 273.312 
L 194.575745 48.418813 
L 192.961299 48.418813 
z
" style="fill:#1f77b4;"/>
   </g>
   <g id="patch_86">
    <path clip-path="url(#p9994d883c4)" d="M 194.575745 273.312 
L 196.19019 273.312 
L 196.19019 81.839473 
L 194.575745 81.839473 
z
" style="fill:#1f77b4;"/>
   </g>
   <g id="patch_87">
    <path clip-path="url(#p9994d883c4)" d="M 196.19019 273.312 
L 197.804636 273.312 
L 197.804636 46.330022 
L 196.19019 46.330022 
z
" style="fill:#1f77b4;"/>
   </g>
   <g id="patch_88">
    <path clip-path="url(#p9994d883c4)" d="M 197.804636 273.312 
L 199.419081 273.312 
L 199.419081 79.750681 
L 197.804636 79.750681 
z
" style="fill:#1f77b4;"/>
   </g>
   <g id="patch_89">
    <path clip-path="url(#p9994d883c4)" d="M 199.419081 273.312 
L 201.033526 273.312 
L 201.033526 71.395516 
L 199.419081 71.395516 
z
" style="fill:#1f77b4;"/>
   </g>
   <g id="patch_90">
    <path clip-path="url(#p9994d883c4)" d="M 201.033526 273.312 
L 202.647972 273.312 
L 202.647972 73.484308 
L 201.033526 73.484308 
z
" style="fill:#1f77b4;"/>
   </g>
   <g id="patch_91">
    <path clip-path="url(#p9994d883c4)" d="M 202.647972 273.312 
L 204.262417 273.312 
L 204.262417 69.306725 
L 202.647972 69.306725 
z
" style="fill:#1f77b4;"/>
   </g>
   <g id="patch_92">
    <path clip-path="url(#p9994d883c4)" d="M 204.262417 273.312 
L 205.876863 273.312 
L 205.876863 51.900132 
L 204.262417 51.900132 
z
" style="fill:#1f77b4;"/>
   </g>
   <g id="patch_93">
    <path clip-path="url(#p9994d883c4)" d="M 205.876863 273.312 
L 207.491308 273.312 
L 207.491308 63.040352 
L 205.876863 63.040352 
z
" style="fill:#1f77b4;"/>
   </g>
   <g id="patch_94">
    <path clip-path="url(#p9994d883c4)" d="M 207.491308 273.312 
L 209.105754 273.312 
L 209.105754 53.988923 
L 207.491308 53.988923 
z
" style="fill:#1f77b4;"/>
   </g>
   <g id="patch_95">
    <path clip-path="url(#p9994d883c4)" d="M 209.105754 273.312 
L 210.720199 273.312 
L 210.720199 72.788044 
L 209.105754 72.788044 
z
" style="fill:#1f77b4;"/>
   </g>
   <g id="patch_96">
    <path clip-path="url(#p9994d883c4)" d="M 210.720199 273.312 
L 212.334644 273.312 
L 212.334644 42.848703 
L 210.720199 42.848703 
z
" style="fill:#1f77b4;"/>
   </g>
   <g id="patch_97">
    <path clip-path="url(#p9994d883c4)" d="M 212.334644 273.312 
L 213.94909 273.312 
L 213.94909 48.418813 
L 212.334644 48.418813 
z
" style="fill:#1f77b4;"/>
   </g>
   <g id="patch_98">
    <path clip-path="url(#p9994d883c4)" d="M 213.94909 273.312 
L 215.563535 273.312 
L 215.563535 49.811341 
L 213.94909 49.811341 
z
" style="fill:#1f77b4;"/>
   </g>
   <g id="patch_99">
    <path clip-path="url(#p9994d883c4)" d="M 215.563535 273.312 
L 217.177981 273.312 
L 217.177981 75.573099 
L 215.563535 75.573099 
z
" style="fill:#1f77b4;"/>
   </g>
   <g id="patch_100">
    <path clip-path="url(#p9994d883c4)" d="M 217.177981 273.312 
L 218.792426 273.312 
L 218.792426 62.344088 
L 217.177981 62.344088 
z
" style="fill:#1f77b4;"/>
   </g>
   <g id="patch_101">
    <path clip-path="url(#p9994d883c4)" d="M 218.792426 273.312 
L 220.406871 273.312 
L 220.406871 63.736615 
L 218.792426 63.736615 
z
" style="fill:#1f77b4;"/>
   </g>
   <g id="patch_102">
    <path clip-path="url(#p9994d883c4)" d="M 220.406871 273.312 
L 222.021317 273.312 
L 222.021317 58.166505 
L 220.406871 58.166505 
z
" style="fill:#1f77b4;"/>
   </g>
   <g id="patch_103">
    <path clip-path="url(#p9994d883c4)" d="M 222.021317 273.312 
L 223.635762 273.312 
L 223.635762 63.736615 
L 222.021317 63.736615 
z
" style="fill:#1f77b4;"/>
   </g>
   <g id="patch_104">
    <path clip-path="url(#p9994d883c4)" d="M 223.635762 273.312 
L 225.250208 273.312 
L 225.250208 57.470242 
L 223.635762 57.470242 
z
" style="fill:#1f77b4;"/>
   </g>
   <g id="patch_105">
    <path clip-path="url(#p9994d883c4)" d="M 225.250208 273.312 
L 226.864653 273.312 
L 226.864653 55.381451 
L 225.250208 55.381451 
z
" style="fill:#1f77b4;"/>
   </g>
   <g id="patch_106">
    <path clip-path="url(#p9994d883c4)" d="M 226.864653 273.312 
L 228.479099 273.312 
L 228.479099 49.115077 
L 226.864653 49.115077 
z
" style="fill:#1f77b4;"/>
   </g>
   <g id="patch_107">
    <path clip-path="url(#p9994d883c4)" d="M 228.479099 273.312 
L 230.093544 273.312 
L 230.093544 53.292659 
L 228.479099 53.292659 
z
" style="fill:#1f77b4;"/>
   </g>
   <g id="patch_108">
    <path clip-path="url(#p9994d883c4)" d="M 230.093544 273.312 
L 231.707989 273.312 
L 231.707989 35.189802 
L 230.093544 35.189802 
z
" style="fill:#1f77b4;"/>
   </g>
   <g id="patch_109">
    <path clip-path="url(#p9994d883c4)" d="M 231.707989 273.312 
L 233.322435 273.312 
L 233.322435 73.484308 
L 231.707989 73.484308 
z
" style="fill:#1f77b4;"/>
   </g>
   <g id="patch_110">
    <path clip-path="url(#p9994d883c4)" d="M 233.322435 273.312 
L 234.93688 273.312 
L 234.93688 63.040352 
L 233.322435 63.040352 
z
" style="fill:#1f77b4;"/>
   </g>
   <g id="patch_111">
    <path clip-path="url(#p9994d883c4)" d="M 234.93688 273.312 
L 236.551326 273.312 
L 236.551326 42.848703 
L 234.93688 42.848703 
z
" style="fill:#1f77b4;"/>
   </g>
   <g id="patch_112">
    <path clip-path="url(#p9994d883c4)" d="M 236.551326 273.312 
L 238.165771 273.312 
L 238.165771 77.66189 
L 236.551326 77.66189 
z
" style="fill:#1f77b4;"/>
   </g>
   <g id="patch_113">
    <path clip-path="url(#p9994d883c4)" d="M 238.165771 273.312 
L 239.780217 273.312 
L 239.780217 54.685187 
L 238.165771 54.685187 
z
" style="fill:#1f77b4;"/>
   </g>
   <g id="patch_114">
    <path clip-path="url(#p9994d883c4)" d="M 239.780217 273.312 
L 241.394662 273.312 
L 241.394662 52.596396 
L 239.780217 52.596396 
z
" style="fill:#1f77b4;"/>
   </g>
   <g id="patch_115">
    <path clip-path="url(#p9994d883c4)" d="M 241.394662 273.312 
L 243.009107 273.312 
L 243.009107 55.381451 
L 241.394662 55.381451 
z
" style="fill:#1f77b4;"/>
   </g>
   <g id="patch_116">
    <path clip-path="url(#p9994d883c4)" d="M 243.009107 273.312 
L 244.623553 273.312 
L 244.623553 35.189802 
L 243.009107 35.189802 
z
" style="fill:#1f77b4;"/>
   </g>
   <g id="patch_117">
    <path clip-path="url(#p9994d883c4)" d="M 244.623553 273.312 
L 246.237998 273.312 
L 246.237998 62.344088 
L 244.623553 62.344088 
z
" style="fill:#1f77b4;"/>
   </g>
   <g id="patch_118">
    <path clip-path="url(#p9994d883c4)" d="M 246.237998 273.312 
L 247.852444 273.312 
L 247.852444 19.872 
L 246.237998 19.872 
z
" style="fill:#1f77b4;"/>
   </g>
   <g id="patch_119">
    <path clip-path="url(#p9994d883c4)" d="M 247.852444 273.312 
L 249.466889 273.312 
L 249.466889 61.647824 
L 247.852444 61.647824 
z
" style="fill:#1f77b4;"/>
   </g>
   <g id="patch_120">
    <path clip-path="url(#p9994d883c4)" d="M 249.466889 273.312 
L 251.081335 273.312 
L 251.081335 81.839473 
L 249.466889 81.839473 
z
" style="fill:#1f77b4;"/>
   </g>
   <g id="patch_121">
    <path clip-path="url(#p9994d883c4)" d="M 251.081335 273.312 
L 252.69578 273.312 
L 252.69578 64.432879 
L 251.081335 64.432879 
z
" style="fill:#1f77b4;"/>
   </g>
   <g id="patch_122">
    <path clip-path="url(#p9994d883c4)" d="M 252.69578 273.312 
L 254.310225 273.312 
L 254.310225 70.699253 
L 252.69578 70.699253 
z
" style="fill:#1f77b4;"/>
   </g>
   <g id="patch_123">
    <path clip-path="url(#p9994d883c4)" d="M 254.310225 273.312 
L 255.924671 273.312 
L 255.924671 61.647824 
L 254.310225 61.647824 
z
" style="fill:#1f77b4;"/>
   </g>
   <g id="patch_124">
    <path clip-path="url(#p9994d883c4)" d="M 255.924671 273.312 
L 257.539116 273.312 
L 257.539116 60.255297 
L 255.924671 60.255297 
z
" style="fill:#1f77b4;"/>
   </g>
   <g id="patch_125">
    <path clip-path="url(#p9994d883c4)" d="M 257.539116 273.312 
L 259.153562 273.312 
L 259.153562 67.217934 
L 257.539116 67.217934 
z
" style="fill:#1f77b4;"/>
   </g>
   <g id="patch_126">
    <path clip-path="url(#p9994d883c4)" d="M 259.153562 273.312 
L 260.768007 273.312 
L 260.768007 88.105846 
L 259.153562 88.105846 
z
" style="fill:#1f77b4;"/>
   </g>
   <g id="patch_127">
    <path clip-path="url(#p9994d883c4)" d="M 260.768007 273.312 
L 262.382452 273.312 
L 262.382452 58.166505 
L 260.768007 58.166505 
z
" style="fill:#1f77b4;"/>
   </g>
   <g id="patch_128">
    <path clip-path="url(#p9994d883c4)" d="M 262.382452 273.312 
L 263.996898 273.312 
L 263.996898 80.446945 
L 262.382452 80.446945 
z
" style="fill:#1f77b4;"/>
   </g>
   <g id="patch_129">
    <path clip-path="url(#p9994d883c4)" d="M 263.996898 273.312 
L 265.611343 273.312 
L 265.611343 75.573099 
L 263.996898 75.573099 
z
" style="fill:#1f77b4;"/>
   </g>
   <g id="patch_130">
    <path clip-path="url(#p9994d883c4)" d="M 265.611343 273.312 
L 267.225789 273.312 
L 267.225789 72.09178 
L 265.611343 72.09178 
z
" style="fill:#1f77b4;"/>
   </g>
   <g id="patch_131">
    <path clip-path="url(#p9994d883c4)" d="M 267.225789 273.312 
L 268.840234 273.312 
L 268.840234 69.306725 
L 267.225789 69.306725 
z
" style="fill:#1f77b4;"/>
   </g>
   <g id="patch_132">
    <path clip-path="url(#p9994d883c4)" d="M 268.840234 273.312 
L 270.45468 273.312 
L 270.45468 75.573099 
L 268.840234 75.573099 
z
" style="fill:#1f77b4;"/>
   </g>
   <g id="patch_133">
    <path clip-path="url(#p9994d883c4)" d="M 270.45468 273.312 
L 272.069125 273.312 
L 272.069125 81.839473 
L 270.45468 81.839473 
z
" style="fill:#1f77b4;"/>
   </g>
   <g id="patch_134">
    <path clip-path="url(#p9994d883c4)" d="M 272.069125 273.312 
L 273.68357 273.312 
L 273.68357 81.143209 
L 272.069125 81.143209 
z
" style="fill:#1f77b4;"/>
   </g>
   <g id="patch_135">
    <path clip-path="url(#p9994d883c4)" d="M 273.68357 273.312 
L 275.298016 273.312 
L 275.298016 96.461011 
L 273.68357 96.461011 
z
" style="fill:#1f77b4;"/>
   </g>
   <g id="patch_136">
    <path clip-path="url(#p9994d883c4)" d="M 275.298016 273.312 
L 276.912461 273.312 
L 276.912461 76.965626 
L 275.298016 76.965626 
z
" style="fill:#1f77b4;"/>
   </g>
   <g id="patch_137">
    <path clip-path="url(#p9994d883c4)" d="M 276.912461 273.312 
L 278.526907 273.312 
L 278.526907 85.320791 
L 276.912461 85.320791 
z
" style="fill:#1f77b4;"/>
   </g>
   <g id="patch_138">
    <path clip-path="url(#p9994d883c4)" d="M 278.526907 273.312 
L 280.141352 273.312 
L 280.141352 88.80211 
L 278.526907 88.80211 
z
" style="fill:#1f77b4;"/>
   </g>
   <g id="patch_139">
    <path clip-path="url(#p9994d883c4)" d="M 280.141352 273.312 
L 281.755798 273.312 
L 281.755798 90.194637 
L 280.141352 90.194637 
z
" style="fill:#1f77b4;"/>
   </g>
   <g id="patch_140">
    <path clip-path="url(#p9994d883c4)" d="M 281.755798 273.312 
L 283.370243 273.312 
L 283.370243 76.269363 
L 281.755798 76.269363 
z
" style="fill:#1f77b4;"/>
   </g>
   <g id="patch_141">
    <path clip-path="url(#p9994d883c4)" d="M 283.370243 273.312 
L 284.984688 273.312 
L 284.984688 79.054418 
L 283.370243 79.054418 
z
" style="fill:#1f77b4;"/>
   </g>
   <g id="patch_142">
    <path clip-path="url(#p9994d883c4)" d="M 284.984688 273.312 
L 286.599134 273.312 
L 286.599134 90.890901 
L 284.984688 90.890901 
z
" style="fill:#1f77b4;"/>
   </g>
   <g id="patch_143">
    <path clip-path="url(#p9994d883c4)" d="M 286.599134 273.312 
L 288.213579 273.312 
L 288.213579 96.461011 
L 286.599134 96.461011 
z
" style="fill:#1f77b4;"/>
   </g>
   <g id="patch_144">
    <path clip-path="url(#p9994d883c4)" d="M 288.213579 273.312 
L 289.828025 273.312 
L 289.828025 94.37222 
L 288.213579 94.37222 
z
" style="fill:#1f77b4;"/>
   </g>
   <g id="patch_145">
    <path clip-path="url(#p9994d883c4)" d="M 289.828025 273.312 
L 291.44247 273.312 
L 291.44247 109.690022 
L 289.828025 109.690022 
z
" style="fill:#1f77b4;"/>
   </g>
   <g id="patch_146">
    <path clip-path="url(#p9994d883c4)" d="M 291.44247 273.312 
L 293.056916 273.312 
L 293.056916 120.133978 
L 291.44247 120.133978 
z
" style="fill:#1f77b4;"/>
   </g>
   <g id="patch_147">
    <path clip-path="url(#p9994d883c4)" d="M 293.056916 273.312 
L 294.671361 273.312 
L 294.671361 115.260132 
L 293.056916 115.260132 
z
" style="fill:#1f77b4;"/>
   </g>
   <g id="patch_148">
    <path clip-path="url(#p9994d883c4)" d="M 294.671361 273.312 
L 296.285806 273.312 
L 296.285806 109.690022 
L 294.671361 109.690022 
z
" style="fill:#1f77b4;"/>
   </g>
   <g id="patch_149">
    <path clip-path="url(#p9994d883c4)" d="M 296.285806 273.312 
L 297.900252 273.312 
L 297.900252 96.461011 
L 296.285806 96.461011 
z
" style="fill:#1f77b4;"/>
   </g>
   <g id="patch_150">
    <path clip-path="url(#p9994d883c4)" d="M 297.900252 273.312 
L 299.514697 273.312 
L 299.514697 120.830242 
L 297.900252 120.830242 
z
" style="fill:#1f77b4;"/>
   </g>
   <g id="patch_151">
    <path clip-path="url(#p9994d883c4)" d="M 299.514697 273.312 
L 301.129143 273.312 
L 301.129143 89.498374 
L 299.514697 89.498374 
z
" style="fill:#1f77b4;"/>
   </g>
   <g id="patch_152">
    <path clip-path="url(#p9994d883c4)" d="M 301.129143 273.312 
L 302.743588 273.312 
L 302.743588 118.741451 
L 301.129143 118.741451 
z
" style="fill:#1f77b4;"/>
   </g>
   <g id="patch_153">
    <path clip-path="url(#p9994d883c4)" d="M 302.743588 273.312 
L 304.358033 273.312 
L 304.358033 114.563868 
L 302.743588 114.563868 
z
" style="fill:#1f77b4;"/>
   </g>
   <g id="patch_154">
    <path clip-path="url(#p9994d883c4)" d="M 304.358033 273.312 
L 305.972479 273.312 
L 305.972479 129.185407 
L 304.358033 129.185407 
z
" style="fill:#1f77b4;"/>
   </g>
   <g id="patch_155">
    <path clip-path="url(#p9994d883c4)" d="M 305.972479 273.312 
L 307.586924 273.312 
L 307.586924 129.185407 
L 305.972479 129.185407 
z
" style="fill:#1f77b4;"/>
   </g>
   <g id="patch_156">
    <path clip-path="url(#p9994d883c4)" d="M 307.586924 273.312 
L 309.20137 273.312 
L 309.20137 134.059253 
L 307.586924 134.059253 
z
" style="fill:#1f77b4;"/>
   </g>
   <g id="patch_157">
    <path clip-path="url(#p9994d883c4)" d="M 309.20137 273.312 
L 310.815815 273.312 
L 310.815815 117.348923 
L 309.20137 117.348923 
z
" style="fill:#1f77b4;"/>
   </g>
   <g id="patch_158">
    <path clip-path="url(#p9994d883c4)" d="M 310.815815 273.312 
L 312.430261 273.312 
L 312.430261 125.007824 
L 310.815815 125.007824 
z
" style="fill:#1f77b4;"/>
   </g>
   <g id="patch_159">
    <path clip-path="url(#p9994d883c4)" d="M 312.430261 273.312 
L 314.044706 273.312 
L 314.044706 130.577934 
L 312.430261 130.577934 
z
" style="fill:#1f77b4;"/>
   </g>
   <g id="patch_160">
    <path clip-path="url(#p9994d883c4)" d="M 314.044706 273.312 
L 315.659151 273.312 
L 315.659151 147.288264 
L 314.044706 147.288264 
z
" style="fill:#1f77b4;"/>
   </g>
   <g id="patch_161">
    <path clip-path="url(#p9994d883c4)" d="M 315.659151 273.312 
L 317.273597 273.312 
L 317.273597 146.592 
L 315.659151 146.592 
z
" style="fill:#1f77b4;"/>
   </g>
   <g id="patch_162">
    <path clip-path="url(#p9994d883c4)" d="M 317.273597 273.312 
L 318.888042 273.312 
L 318.888042 158.428484 
L 317.273597 158.428484 
z
" style="fill:#1f77b4;"/>
   </g>
   <g id="patch_163">
    <path clip-path="url(#p9994d883c4)" d="M 318.888042 273.312 
L 320.502488 273.312 
L 320.502488 157.035956 
L 318.888042 157.035956 
z
" style="fill:#1f77b4;"/>
   </g>
   <g id="patch_164">
    <path clip-path="url(#p9994d883c4)" d="M 320.502488 273.312 
L 322.116933 273.312 
L 322.116933 148.680791 
L 320.502488 148.680791 
z
" style="fill:#1f77b4;"/>
   </g>
   <g id="patch_165">
    <path clip-path="url(#p9994d883c4)" d="M 322.116933 273.312 
L 323.731379 273.312 
L 323.731379 129.88167 
L 322.116933 129.88167 
z
" style="fill:#1f77b4;"/>
   </g>
   <g id="patch_166">
    <path clip-path="url(#p9994d883c4)" d="M 323.731379 273.312 
L 325.345824 273.312 
L 325.345824 153.554637 
L 323.731379 153.554637 
z
" style="fill:#1f77b4;"/>
   </g>
   <g id="patch_167">
    <path clip-path="url(#p9994d883c4)" d="M 325.345824 273.312 
L 326.960269 273.312 
L 326.960269 159.124747 
L 325.345824 159.124747 
z
" style="fill:#1f77b4;"/>
   </g>
   <g id="patch_168">
    <path clip-path="url(#p9994d883c4)" d="M 326.960269 273.312 
L 328.574715 273.312 
L 328.574715 161.213538 
L 326.960269 161.213538 
z
" style="fill:#1f77b4;"/>
   </g>
   <g id="patch_169">
    <path clip-path="url(#p9994d883c4)" d="M 328.574715 273.312 
L 330.18916 273.312 
L 330.18916 175.835077 
L 328.574715 175.835077 
z
" style="fill:#1f77b4;"/>
   </g>
   <g id="patch_170">
    <path clip-path="url(#p9994d883c4)" d="M 330.18916 273.312 
L 331.803606 273.312 
L 331.803606 172.353758 
L 330.18916 172.353758 
z
" style="fill:#1f77b4;"/>
   </g>
   <g id="patch_171">
    <path clip-path="url(#p9994d883c4)" d="M 331.803606 273.312 
L 333.418051 273.312 
L 333.418051 164.694857 
L 331.803606 164.694857 
z
" style="fill:#1f77b4;"/>
   </g>
   <g id="patch_172">
    <path clip-path="url(#p9994d883c4)" d="M 333.418051 273.312 
L 335.032497 273.312 
L 335.032497 168.176176 
L 333.418051 168.176176 
z
" style="fill:#1f77b4;"/>
   </g>
   <g id="patch_173">
    <path clip-path="url(#p9994d883c4)" d="M 335.032497 273.312 
L 336.646942 273.312 
L 336.646942 180.708923 
L 335.032497 180.708923 
z
" style="fill:#1f77b4;"/>
   </g>
   <g id="patch_174">
    <path clip-path="url(#p9994d883c4)" d="M 336.646942 273.312 
L 338.261387 273.312 
L 338.261387 165.391121 
L 336.646942 165.391121 
z
" style="fill:#1f77b4;"/>
   </g>
   <g id="patch_175">
    <path clip-path="url(#p9994d883c4)" d="M 338.261387 273.312 
L 339.875833 273.312 
L 339.875833 178.620132 
L 338.261387 178.620132 
z
" style="fill:#1f77b4;"/>
   </g>
   <g id="patch_176">
    <path clip-path="url(#p9994d883c4)" d="M 339.875833 273.312 
L 341.490278 273.312 
L 341.490278 187.67156 
L 339.875833 187.67156 
z
" style="fill:#1f77b4;"/>
   </g>
   <g id="patch_177">
    <path clip-path="url(#p9994d883c4)" d="M 341.490278 273.312 
L 343.104724 273.312 
L 343.104724 207.863209 
L 341.490278 207.863209 
z
" style="fill:#1f77b4;"/>
   </g>
   <g id="patch_178">
    <path clip-path="url(#p9994d883c4)" d="M 343.104724 273.312 
L 344.719169 273.312 
L 344.719169 195.330462 
L 343.104724 195.330462 
z
" style="fill:#1f77b4;"/>
   </g>
   <g id="patch_179">
    <path clip-path="url(#p9994d883c4)" d="M 344.719169 273.312 
L 346.333614 273.312 
L 346.333614 186.975297 
L 344.719169 186.975297 
z
" style="fill:#1f77b4;"/>
   </g>
   <g id="patch_180">
    <path clip-path="url(#p9994d883c4)" d="M 346.333614 273.312 
L 347.94806 273.312 
L 347.94806 191.152879 
L 346.333614 191.152879 
z
" style="fill:#1f77b4;"/>
   </g>
   <g id="patch_181">
    <path clip-path="url(#p9994d883c4)" d="M 347.94806 273.312 
L 349.562505 273.312 
L 349.562505 202.293099 
L 347.94806 202.293099 
z
" style="fill:#1f77b4;"/>
   </g>
   <g id="patch_182">
    <path clip-path="url(#p9994d883c4)" d="M 349.562505 273.312 
L 351.176951 273.312 
L 351.176951 209.255736 
L 349.562505 209.255736 
z
" style="fill:#1f77b4;"/>
   </g>
   <g id="patch_183">
    <path clip-path="url(#p9994d883c4)" d="M 351.176951 273.312 
L 352.791396 273.312 
L 352.791396 186.975297 
L 351.176951 186.975297 
z
" style="fill:#1f77b4;"/>
   </g>
   <g id="patch_184">
    <path clip-path="url(#p9994d883c4)" d="M 352.791396 273.312 
L 354.405842 273.312 
L 354.405842 210.648264 
L 352.791396 210.648264 
z
" style="fill:#1f77b4;"/>
   </g>
   <g id="patch_185">
    <path clip-path="url(#p9994d883c4)" d="M 354.405842 273.312 
L 356.020287 273.312 
L 356.020287 213.433319 
L 354.405842 213.433319 
z
" style="fill:#1f77b4;"/>
   </g>
   <g id="patch_186">
    <path clip-path="url(#p9994d883c4)" d="M 356.020287 273.312 
L 357.634732 273.312 
L 357.634732 215.52211 
L 356.020287 215.52211 
z
" style="fill:#1f77b4;"/>
   </g>
   <g id="patch_187">
    <path clip-path="url(#p9994d883c4)" d="M 357.634732 273.312 
L 359.249178 273.312 
L 359.249178 221.09222 
L 357.634732 221.09222 
z
" style="fill:#1f77b4;"/>
   </g>
   <g id="patch_188">
    <path clip-path="url(#p9994d883c4)" d="M 359.249178 273.312 
L 360.863623 273.312 
L 360.863623 225.269802 
L 359.249178 225.269802 
z
" style="fill:#1f77b4;"/>
   </g>
   <g id="patch_189">
    <path clip-path="url(#p9994d883c4)" d="M 360.863623 273.312 
L 362.478069 273.312 
L 362.478069 226.66233 
L 360.863623 226.66233 
z
" style="fill:#1f77b4;"/>
   </g>
   <g id="patch_190">
    <path clip-path="url(#p9994d883c4)" d="M 362.478069 273.312 
L 364.092514 273.312 
L 364.092514 220.395956 
L 362.478069 220.395956 
z
" style="fill:#1f77b4;"/>
   </g>
   <g id="patch_191">
    <path clip-path="url(#p9994d883c4)" d="M 364.092514 273.312 
L 365.70696 273.312 
L 365.70696 221.788484 
L 364.092514 221.788484 
z
" style="fill:#1f77b4;"/>
   </g>
   <g id="patch_192">
    <path clip-path="url(#p9994d883c4)" d="M 365.70696 273.312 
L 367.321405 273.312 
L 367.321405 225.966066 
L 365.70696 225.966066 
z
" style="fill:#1f77b4;"/>
   </g>
   <g id="patch_193">
    <path clip-path="url(#p9994d883c4)" d="M 367.321405 273.312 
L 368.93585 273.312 
L 368.93585 244.068923 
L 367.321405 244.068923 
z
" style="fill:#1f77b4;"/>
   </g>
   <g id="patch_194">
    <path clip-path="url(#p9994d883c4)" d="M 368.93585 273.312 
L 370.550296 273.312 
L 370.550296 237.802549 
L 368.93585 237.802549 
z
" style="fill:#1f77b4;"/>
   </g>
   <g id="patch_195">
    <path clip-path="url(#p9994d883c4)" d="M 370.550296 273.312 
L 372.164741 273.312 
L 372.164741 244.068923 
L 370.550296 244.068923 
z
" style="fill:#1f77b4;"/>
   </g>
   <g id="patch_196">
    <path clip-path="url(#p9994d883c4)" d="M 372.164741 273.312 
L 373.779187 273.312 
L 373.779187 246.853978 
L 372.164741 246.853978 
z
" style="fill:#1f77b4;"/>
   </g>
   <g id="patch_197">
    <path clip-path="url(#p9994d883c4)" d="M 373.779187 273.312 
L 375.393632 273.312 
L 375.393632 249.639033 
L 373.779187 249.639033 
z
" style="fill:#1f77b4;"/>
   </g>
   <g id="patch_198">
    <path clip-path="url(#p9994d883c4)" d="M 375.393632 273.312 
L 377.008077 273.312 
L 377.008077 254.512879 
L 375.393632 254.512879 
z
" style="fill:#1f77b4;"/>
   </g>
   <g id="patch_199">
    <path clip-path="url(#p9994d883c4)" d="M 377.008077 273.312 
L 378.622523 273.312 
L 378.622523 258.690462 
L 377.008077 258.690462 
z
" style="fill:#1f77b4;"/>
   </g>
   <g id="patch_200">
    <path clip-path="url(#p9994d883c4)" d="M 378.622523 273.312 
L 380.236968 273.312 
L 380.236968 264.956835 
L 378.622523 264.956835 
z
" style="fill:#1f77b4;"/>
   </g>
   <g id="patch_201">
    <path clip-path="url(#p9994d883c4)" d="M 380.236968 273.312 
L 381.851414 273.312 
L 381.851414 260.779253 
L 380.236968 260.779253 
z
" style="fill:#1f77b4;"/>
   </g>
   <g id="patch_202">
    <path clip-path="url(#p9994d883c4)" d="M 381.851414 273.312 
L 383.465859 273.312 
L 383.465859 266.349363 
L 381.851414 266.349363 
z
" style="fill:#1f77b4;"/>
   </g>
   <g id="matplotlib.axis_1">
    <g id="xtick_1">
     <g id="line2d_1">
      <defs>
       <path d="M 0 0 
L 0 3.5 
" id="m64e05a9da3" style="stroke:#000000;stroke-width:0.8;"/>
      </defs>
      <g>
       <use style="stroke:#000000;stroke-width:0.8;" x="60.013977" xlink:href="#m64e05a9da3" y="273.312"/>
      </g>
     </g>
     <g id="text_1">
      <!-- 0.0 -->
      <g transform="translate(52.062415 287.910437)scale(0.1 -0.1)">
       <defs>
        <path d="M 2034 4250 
Q 1547 4250 1301 3770 
Q 1056 3291 1056 2328 
Q 1056 1369 1301 889 
Q 1547 409 2034 409 
Q 2525 409 2770 889 
Q 3016 1369 3016 2328 
Q 3016 3291 2770 3770 
Q 2525 4250 2034 4250 
z
M 2034 4750 
Q 2819 4750 3233 4129 
Q 3647 3509 3647 2328 
Q 3647 1150 3233 529 
Q 2819 -91 2034 -91 
Q 1250 -91 836 529 
Q 422 1150 422 2328 
Q 422 3509 836 4129 
Q 1250 4750 2034 4750 
z
" id="DejaVuSans-30" transform="scale(0.015625)"/>
        <path d="M 684 794 
L 1344 794 
L 1344 0 
L 684 0 
L 684 794 
z
" id="DejaVuSans-2e" transform="scale(0.015625)"/>
       </defs>
       <use xlink:href="#DejaVuSans-30"/>
       <use x="63.623047" xlink:href="#DejaVuSans-2e"/>
       <use x="95.410156" xlink:href="#DejaVuSans-30"/>
      </g>
     </g>
    </g>
    <g id="xtick_2">
     <g id="line2d_2">
      <g>
       <use style="stroke:#000000;stroke-width:0.8;" x="101.350278" xlink:href="#m64e05a9da3" y="273.312"/>
      </g>
     </g>
     <g id="text_2">
      <!-- 0.2 -->
      <g transform="translate(93.398715 287.910437)scale(0.1 -0.1)">
       <defs>
        <path d="M 1228 531 
L 3431 531 
L 3431 0 
L 469 0 
L 469 531 
Q 828 903 1448 1529 
Q 2069 2156 2228 2338 
Q 2531 2678 2651 2914 
Q 2772 3150 2772 3378 
Q 2772 3750 2511 3984 
Q 2250 4219 1831 4219 
Q 1534 4219 1204 4116 
Q 875 4013 500 3803 
L 500 4441 
Q 881 4594 1212 4672 
Q 1544 4750 1819 4750 
Q 2544 4750 2975 4387 
Q 3406 4025 3406 3419 
Q 3406 3131 3298 2873 
Q 3191 2616 2906 2266 
Q 2828 2175 2409 1742 
Q 1991 1309 1228 531 
z
" id="DejaVuSans-32" transform="scale(0.015625)"/>
       </defs>
       <use xlink:href="#DejaVuSans-30"/>
       <use x="63.623047" xlink:href="#DejaVuSans-2e"/>
       <use x="95.410156" xlink:href="#DejaVuSans-32"/>
      </g>
     </g>
    </g>
    <g id="xtick_3">
     <g id="line2d_3">
      <g>
       <use style="stroke:#000000;stroke-width:0.8;" x="142.686578" xlink:href="#m64e05a9da3" y="273.312"/>
      </g>
     </g>
     <g id="text_3">
      <!-- 0.4 -->
      <g transform="translate(134.735016 287.910437)scale(0.1 -0.1)">
       <defs>
        <path d="M 2419 4116 
L 825 1625 
L 2419 1625 
L 2419 4116 
z
M 2253 4666 
L 3047 4666 
L 3047 1625 
L 3713 1625 
L 3713 1100 
L 3047 1100 
L 3047 0 
L 2419 0 
L 2419 1100 
L 313 1100 
L 313 1709 
L 2253 4666 
z
" id="DejaVuSans-34" transform="scale(0.015625)"/>
       </defs>
       <use xlink:href="#DejaVuSans-30"/>
       <use x="63.623047" xlink:href="#DejaVuSans-2e"/>
       <use x="95.410156" xlink:href="#DejaVuSans-34"/>
      </g>
     </g>
    </g>
    <g id="xtick_4">
     <g id="line2d_4">
      <g>
       <use style="stroke:#000000;stroke-width:0.8;" x="184.022879" xlink:href="#m64e05a9da3" y="273.312"/>
      </g>
     </g>
     <g id="text_4">
      <!-- 0.6 -->
      <g transform="translate(176.071316 287.910437)scale(0.1 -0.1)">
       <defs>
        <path d="M 2113 2584 
Q 1688 2584 1439 2293 
Q 1191 2003 1191 1497 
Q 1191 994 1439 701 
Q 1688 409 2113 409 
Q 2538 409 2786 701 
Q 3034 994 3034 1497 
Q 3034 2003 2786 2293 
Q 2538 2584 2113 2584 
z
M 3366 4563 
L 3366 3988 
Q 3128 4100 2886 4159 
Q 2644 4219 2406 4219 
Q 1781 4219 1451 3797 
Q 1122 3375 1075 2522 
Q 1259 2794 1537 2939 
Q 1816 3084 2150 3084 
Q 2853 3084 3261 2657 
Q 3669 2231 3669 1497 
Q 3669 778 3244 343 
Q 2819 -91 2113 -91 
Q 1303 -91 875 529 
Q 447 1150 447 2328 
Q 447 3434 972 4092 
Q 1497 4750 2381 4750 
Q 2619 4750 2861 4703 
Q 3103 4656 3366 4563 
z
" id="DejaVuSans-36" transform="scale(0.015625)"/>
       </defs>
       <use xlink:href="#DejaVuSans-30"/>
       <use x="63.623047" xlink:href="#DejaVuSans-2e"/>
       <use x="95.410156" xlink:href="#DejaVuSans-36"/>
      </g>
     </g>
    </g>
    <g id="xtick_5">
     <g id="line2d_5">
      <g>
       <use style="stroke:#000000;stroke-width:0.8;" x="225.35918" xlink:href="#m64e05a9da3" y="273.312"/>
      </g>
     </g>
     <g id="text_5">
      <!-- 0.8 -->
      <g transform="translate(217.407617 287.910437)scale(0.1 -0.1)">
       <defs>
        <path d="M 2034 2216 
Q 1584 2216 1326 1975 
Q 1069 1734 1069 1313 
Q 1069 891 1326 650 
Q 1584 409 2034 409 
Q 2484 409 2743 651 
Q 3003 894 3003 1313 
Q 3003 1734 2745 1975 
Q 2488 2216 2034 2216 
z
M 1403 2484 
Q 997 2584 770 2862 
Q 544 3141 544 3541 
Q 544 4100 942 4425 
Q 1341 4750 2034 4750 
Q 2731 4750 3128 4425 
Q 3525 4100 3525 3541 
Q 3525 3141 3298 2862 
Q 3072 2584 2669 2484 
Q 3125 2378 3379 2068 
Q 3634 1759 3634 1313 
Q 3634 634 3220 271 
Q 2806 -91 2034 -91 
Q 1263 -91 848 271 
Q 434 634 434 1313 
Q 434 1759 690 2068 
Q 947 2378 1403 2484 
z
M 1172 3481 
Q 1172 3119 1398 2916 
Q 1625 2713 2034 2713 
Q 2441 2713 2670 2916 
Q 2900 3119 2900 3481 
Q 2900 3844 2670 4047 
Q 2441 4250 2034 4250 
Q 1625 4250 1398 4047 
Q 1172 3844 1172 3481 
z
" id="DejaVuSans-38" transform="scale(0.015625)"/>
       </defs>
       <use xlink:href="#DejaVuSans-30"/>
       <use x="63.623047" xlink:href="#DejaVuSans-2e"/>
       <use x="95.410156" xlink:href="#DejaVuSans-38"/>
      </g>
     </g>
    </g>
    <g id="xtick_6">
     <g id="line2d_6">
      <g>
       <use style="stroke:#000000;stroke-width:0.8;" x="266.69548" xlink:href="#m64e05a9da3" y="273.312"/>
      </g>
     </g>
     <g id="text_6">
      <!-- 1.0 -->
      <g transform="translate(258.743918 287.910437)scale(0.1 -0.1)">
       <defs>
        <path d="M 794 531 
L 1825 531 
L 1825 4091 
L 703 3866 
L 703 4441 
L 1819 4666 
L 2450 4666 
L 2450 531 
L 3481 531 
L 3481 0 
L 794 0 
L 794 531 
z
" id="DejaVuSans-31" transform="scale(0.015625)"/>
       </defs>
       <use xlink:href="#DejaVuSans-31"/>
       <use x="63.623047" xlink:href="#DejaVuSans-2e"/>
       <use x="95.410156" xlink:href="#DejaVuSans-30"/>
      </g>
     </g>
    </g>
    <g id="xtick_7">
     <g id="line2d_7">
      <g>
       <use style="stroke:#000000;stroke-width:0.8;" x="308.031781" xlink:href="#m64e05a9da3" y="273.312"/>
      </g>
     </g>
     <g id="text_7">
      <!-- 1.2 -->
      <g transform="translate(300.080218 287.910437)scale(0.1 -0.1)">
       <use xlink:href="#DejaVuSans-31"/>
       <use x="63.623047" xlink:href="#DejaVuSans-2e"/>
       <use x="95.410156" xlink:href="#DejaVuSans-32"/>
      </g>
     </g>
    </g>
    <g id="xtick_8">
     <g id="line2d_8">
      <g>
       <use style="stroke:#000000;stroke-width:0.8;" x="349.368081" xlink:href="#m64e05a9da3" y="273.312"/>
      </g>
     </g>
     <g id="text_8">
      <!-- 1.4 -->
      <g transform="translate(341.416519 287.910437)scale(0.1 -0.1)">
       <use xlink:href="#DejaVuSans-31"/>
       <use x="63.623047" xlink:href="#DejaVuSans-2e"/>
       <use x="95.410156" xlink:href="#DejaVuSans-34"/>
      </g>
     </g>
    </g>
    <g id="xtick_9">
     <g id="line2d_9">
      <g>
       <use style="stroke:#000000;stroke-width:0.8;" x="390.704382" xlink:href="#m64e05a9da3" y="273.312"/>
      </g>
     </g>
     <g id="text_9">
      <!-- 1.6 -->
      <g transform="translate(382.752819 287.910437)scale(0.1 -0.1)">
       <use xlink:href="#DejaVuSans-31"/>
       <use x="63.623047" xlink:href="#DejaVuSans-2e"/>
       <use x="95.410156" xlink:href="#DejaVuSans-36"/>
      </g>
     </g>
    </g>
    <g id="text_10">
     <!-- Angle with normal (rad) -->
     <g transform="translate(163.023281 301.588562)scale(0.1 -0.1)">
      <defs>
       <path d="M 2188 4044 
L 1331 1722 
L 3047 1722 
L 2188 4044 
z
M 1831 4666 
L 2547 4666 
L 4325 0 
L 3669 0 
L 3244 1197 
L 1141 1197 
L 716 0 
L 50 0 
L 1831 4666 
z
" id="DejaVuSans-41" transform="scale(0.015625)"/>
       <path d="M 3513 2113 
L 3513 0 
L 2938 0 
L 2938 2094 
Q 2938 2591 2744 2837 
Q 2550 3084 2163 3084 
Q 1697 3084 1428 2787 
Q 1159 2491 1159 1978 
L 1159 0 
L 581 0 
L 581 3500 
L 1159 3500 
L 1159 2956 
Q 1366 3272 1645 3428 
Q 1925 3584 2291 3584 
Q 2894 3584 3203 3211 
Q 3513 2838 3513 2113 
z
" id="DejaVuSans-6e" transform="scale(0.015625)"/>
       <path d="M 2906 1791 
Q 2906 2416 2648 2759 
Q 2391 3103 1925 3103 
Q 1463 3103 1205 2759 
Q 947 2416 947 1791 
Q 947 1169 1205 825 
Q 1463 481 1925 481 
Q 2391 481 2648 825 
Q 2906 1169 2906 1791 
z
M 3481 434 
Q 3481 -459 3084 -895 
Q 2688 -1331 1869 -1331 
Q 1566 -1331 1297 -1286 
Q 1028 -1241 775 -1147 
L 775 -588 
Q 1028 -725 1275 -790 
Q 1522 -856 1778 -856 
Q 2344 -856 2625 -561 
Q 2906 -266 2906 331 
L 2906 616 
Q 2728 306 2450 153 
Q 2172 0 1784 0 
Q 1141 0 747 490 
Q 353 981 353 1791 
Q 353 2603 747 3093 
Q 1141 3584 1784 3584 
Q 2172 3584 2450 3431 
Q 2728 3278 2906 2969 
L 2906 3500 
L 3481 3500 
L 3481 434 
z
" id="DejaVuSans-67" transform="scale(0.015625)"/>
       <path d="M 603 4863 
L 1178 4863 
L 1178 0 
L 603 0 
L 603 4863 
z
" id="DejaVuSans-6c" transform="scale(0.015625)"/>
       <path d="M 3597 1894 
L 3597 1613 
L 953 1613 
Q 991 1019 1311 708 
Q 1631 397 2203 397 
Q 2534 397 2845 478 
Q 3156 559 3463 722 
L 3463 178 
Q 3153 47 2828 -22 
Q 2503 -91 2169 -91 
Q 1331 -91 842 396 
Q 353 884 353 1716 
Q 353 2575 817 3079 
Q 1281 3584 2069 3584 
Q 2775 3584 3186 3129 
Q 3597 2675 3597 1894 
z
M 3022 2063 
Q 3016 2534 2758 2815 
Q 2500 3097 2075 3097 
Q 1594 3097 1305 2825 
Q 1016 2553 972 2059 
L 3022 2063 
z
" id="DejaVuSans-65" transform="scale(0.015625)"/>
       <path id="DejaVuSans-20" transform="scale(0.015625)"/>
       <path d="M 269 3500 
L 844 3500 
L 1563 769 
L 2278 3500 
L 2956 3500 
L 3675 769 
L 4391 3500 
L 4966 3500 
L 4050 0 
L 3372 0 
L 2619 2869 
L 1863 0 
L 1184 0 
L 269 3500 
z
" id="DejaVuSans-77" transform="scale(0.015625)"/>
       <path d="M 603 3500 
L 1178 3500 
L 1178 0 
L 603 0 
L 603 3500 
z
M 603 4863 
L 1178 4863 
L 1178 4134 
L 603 4134 
L 603 4863 
z
" id="DejaVuSans-69" transform="scale(0.015625)"/>
       <path d="M 1172 4494 
L 1172 3500 
L 2356 3500 
L 2356 3053 
L 1172 3053 
L 1172 1153 
Q 1172 725 1289 603 
Q 1406 481 1766 481 
L 2356 481 
L 2356 0 
L 1766 0 
Q 1100 0 847 248 
Q 594 497 594 1153 
L 594 3053 
L 172 3053 
L 172 3500 
L 594 3500 
L 594 4494 
L 1172 4494 
z
" id="DejaVuSans-74" transform="scale(0.015625)"/>
       <path d="M 3513 2113 
L 3513 0 
L 2938 0 
L 2938 2094 
Q 2938 2591 2744 2837 
Q 2550 3084 2163 3084 
Q 1697 3084 1428 2787 
Q 1159 2491 1159 1978 
L 1159 0 
L 581 0 
L 581 4863 
L 1159 4863 
L 1159 2956 
Q 1366 3272 1645 3428 
Q 1925 3584 2291 3584 
Q 2894 3584 3203 3211 
Q 3513 2838 3513 2113 
z
" id="DejaVuSans-68" transform="scale(0.015625)"/>
       <path d="M 1959 3097 
Q 1497 3097 1228 2736 
Q 959 2375 959 1747 
Q 959 1119 1226 758 
Q 1494 397 1959 397 
Q 2419 397 2687 759 
Q 2956 1122 2956 1747 
Q 2956 2369 2687 2733 
Q 2419 3097 1959 3097 
z
M 1959 3584 
Q 2709 3584 3137 3096 
Q 3566 2609 3566 1747 
Q 3566 888 3137 398 
Q 2709 -91 1959 -91 
Q 1206 -91 779 398 
Q 353 888 353 1747 
Q 353 2609 779 3096 
Q 1206 3584 1959 3584 
z
" id="DejaVuSans-6f" transform="scale(0.015625)"/>
       <path d="M 2631 2963 
Q 2534 3019 2420 3045 
Q 2306 3072 2169 3072 
Q 1681 3072 1420 2755 
Q 1159 2438 1159 1844 
L 1159 0 
L 581 0 
L 581 3500 
L 1159 3500 
L 1159 2956 
Q 1341 3275 1631 3429 
Q 1922 3584 2338 3584 
Q 2397 3584 2469 3576 
Q 2541 3569 2628 3553 
L 2631 2963 
z
" id="DejaVuSans-72" transform="scale(0.015625)"/>
       <path d="M 3328 2828 
Q 3544 3216 3844 3400 
Q 4144 3584 4550 3584 
Q 5097 3584 5394 3201 
Q 5691 2819 5691 2113 
L 5691 0 
L 5113 0 
L 5113 2094 
Q 5113 2597 4934 2840 
Q 4756 3084 4391 3084 
Q 3944 3084 3684 2787 
Q 3425 2491 3425 1978 
L 3425 0 
L 2847 0 
L 2847 2094 
Q 2847 2600 2669 2842 
Q 2491 3084 2119 3084 
Q 1678 3084 1418 2786 
Q 1159 2488 1159 1978 
L 1159 0 
L 581 0 
L 581 3500 
L 1159 3500 
L 1159 2956 
Q 1356 3278 1631 3431 
Q 1906 3584 2284 3584 
Q 2666 3584 2933 3390 
Q 3200 3197 3328 2828 
z
" id="DejaVuSans-6d" transform="scale(0.015625)"/>
       <path d="M 2194 1759 
Q 1497 1759 1228 1600 
Q 959 1441 959 1056 
Q 959 750 1161 570 
Q 1363 391 1709 391 
Q 2188 391 2477 730 
Q 2766 1069 2766 1631 
L 2766 1759 
L 2194 1759 
z
M 3341 1997 
L 3341 0 
L 2766 0 
L 2766 531 
Q 2569 213 2275 61 
Q 1981 -91 1556 -91 
Q 1019 -91 701 211 
Q 384 513 384 1019 
Q 384 1609 779 1909 
Q 1175 2209 1959 2209 
L 2766 2209 
L 2766 2266 
Q 2766 2663 2505 2880 
Q 2244 3097 1772 3097 
Q 1472 3097 1187 3025 
Q 903 2953 641 2809 
L 641 3341 
Q 956 3463 1253 3523 
Q 1550 3584 1831 3584 
Q 2591 3584 2966 3190 
Q 3341 2797 3341 1997 
z
" id="DejaVuSans-61" transform="scale(0.015625)"/>
       <path d="M 1984 4856 
Q 1566 4138 1362 3434 
Q 1159 2731 1159 2009 
Q 1159 1288 1364 580 
Q 1569 -128 1984 -844 
L 1484 -844 
Q 1016 -109 783 600 
Q 550 1309 550 2009 
Q 550 2706 781 3412 
Q 1013 4119 1484 4856 
L 1984 4856 
z
" id="DejaVuSans-28" transform="scale(0.015625)"/>
       <path d="M 2906 2969 
L 2906 4863 
L 3481 4863 
L 3481 0 
L 2906 0 
L 2906 525 
Q 2725 213 2448 61 
Q 2172 -91 1784 -91 
Q 1150 -91 751 415 
Q 353 922 353 1747 
Q 353 2572 751 3078 
Q 1150 3584 1784 3584 
Q 2172 3584 2448 3432 
Q 2725 3281 2906 2969 
z
M 947 1747 
Q 947 1113 1208 752 
Q 1469 391 1925 391 
Q 2381 391 2643 752 
Q 2906 1113 2906 1747 
Q 2906 2381 2643 2742 
Q 2381 3103 1925 3103 
Q 1469 3103 1208 2742 
Q 947 2381 947 1747 
z
" id="DejaVuSans-64" transform="scale(0.015625)"/>
       <path d="M 513 4856 
L 1013 4856 
Q 1481 4119 1714 3412 
Q 1947 2706 1947 2009 
Q 1947 1309 1714 600 
Q 1481 -109 1013 -844 
L 513 -844 
Q 928 -128 1133 580 
Q 1338 1288 1338 2009 
Q 1338 2731 1133 3434 
Q 928 4138 513 4856 
z
" id="DejaVuSans-29" transform="scale(0.015625)"/>
      </defs>
      <use xlink:href="#DejaVuSans-41"/>
      <use x="68.408203" xlink:href="#DejaVuSans-6e"/>
      <use x="131.787109" xlink:href="#DejaVuSans-67"/>
      <use x="195.263672" xlink:href="#DejaVuSans-6c"/>
      <use x="223.046875" xlink:href="#DejaVuSans-65"/>
      <use x="284.570312" xlink:href="#DejaVuSans-20"/>
      <use x="316.357422" xlink:href="#DejaVuSans-77"/>
      <use x="398.144531" xlink:href="#DejaVuSans-69"/>
      <use x="425.927734" xlink:href="#DejaVuSans-74"/>
      <use x="465.136719" xlink:href="#DejaVuSans-68"/>
      <use x="528.515625" xlink:href="#DejaVuSans-20"/>
      <use x="560.302734" xlink:href="#DejaVuSans-6e"/>
      <use x="623.681641" xlink:href="#DejaVuSans-6f"/>
      <use x="684.863281" xlink:href="#DejaVuSans-72"/>
      <use x="724.226562" xlink:href="#DejaVuSans-6d"/>
      <use x="821.638672" xlink:href="#DejaVuSans-61"/>
      <use x="882.917969" xlink:href="#DejaVuSans-6c"/>
      <use x="910.701172" xlink:href="#DejaVuSans-20"/>
      <use x="942.488281" xlink:href="#DejaVuSans-28"/>
      <use x="981.501953" xlink:href="#DejaVuSans-72"/>
      <use x="1022.615234" xlink:href="#DejaVuSans-61"/>
      <use x="1083.894531" xlink:href="#DejaVuSans-64"/>
      <use x="1147.371094" xlink:href="#DejaVuSans-29"/>
     </g>
    </g>
   </g>
   <g id="matplotlib.axis_2">
    <g id="ytick_1">
     <g id="line2d_10">
      <defs>
       <path d="M 0 0 
L -3.5 0 
" id="mf56f284991" style="stroke:#000000;stroke-width:0.8;"/>
      </defs>
      <g>
       <use style="stroke:#000000;stroke-width:0.8;" x="43.78125" xlink:href="#mf56f284991" y="273.312"/>
      </g>
     </g>
     <g id="text_11">
      <!-- 0.0 -->
      <g transform="translate(20.878125 277.111219)scale(0.1 -0.1)">
       <use xlink:href="#DejaVuSans-30"/>
       <use x="63.623047" xlink:href="#DejaVuSans-2e"/>
       <use x="95.410156" xlink:href="#DejaVuSans-30"/>
      </g>
     </g>
    </g>
    <g id="ytick_2">
     <g id="line2d_11">
      <g>
       <use style="stroke:#000000;stroke-width:0.8;" x="43.78125" xlink:href="#mf56f284991" y="229.802357"/>
      </g>
     </g>
     <g id="text_12">
      <!-- 0.2 -->
      <g transform="translate(20.878125 233.601576)scale(0.1 -0.1)">
       <use xlink:href="#DejaVuSans-30"/>
       <use x="63.623047" xlink:href="#DejaVuSans-2e"/>
       <use x="95.410156" xlink:href="#DejaVuSans-32"/>
      </g>
     </g>
    </g>
    <g id="ytick_3">
     <g id="line2d_12">
      <g>
       <use style="stroke:#000000;stroke-width:0.8;" x="43.78125" xlink:href="#mf56f284991" y="186.292714"/>
      </g>
     </g>
     <g id="text_13">
      <!-- 0.4 -->
      <g transform="translate(20.878125 190.091933)scale(0.1 -0.1)">
       <use xlink:href="#DejaVuSans-30"/>
       <use x="63.623047" xlink:href="#DejaVuSans-2e"/>
       <use x="95.410156" xlink:href="#DejaVuSans-34"/>
      </g>
     </g>
    </g>
    <g id="ytick_4">
     <g id="line2d_13">
      <g>
       <use style="stroke:#000000;stroke-width:0.8;" x="43.78125" xlink:href="#mf56f284991" y="142.783071"/>
      </g>
     </g>
     <g id="text_14">
      <!-- 0.6 -->
      <g transform="translate(20.878125 146.58229)scale(0.1 -0.1)">
       <use xlink:href="#DejaVuSans-30"/>
       <use x="63.623047" xlink:href="#DejaVuSans-2e"/>
       <use x="95.410156" xlink:href="#DejaVuSans-36"/>
      </g>
     </g>
    </g>
    <g id="ytick_5">
     <g id="line2d_14">
      <g>
       <use style="stroke:#000000;stroke-width:0.8;" x="43.78125" xlink:href="#mf56f284991" y="99.273428"/>
      </g>
     </g>
     <g id="text_15">
      <!-- 0.8 -->
      <g transform="translate(20.878125 103.072646)scale(0.1 -0.1)">
       <use xlink:href="#DejaVuSans-30"/>
       <use x="63.623047" xlink:href="#DejaVuSans-2e"/>
       <use x="95.410156" xlink:href="#DejaVuSans-38"/>
      </g>
     </g>
    </g>
    <g id="ytick_6">
     <g id="line2d_15">
      <g>
       <use style="stroke:#000000;stroke-width:0.8;" x="43.78125" xlink:href="#mf56f284991" y="55.763785"/>
      </g>
     </g>
     <g id="text_16">
      <!-- 1.0 -->
      <g transform="translate(20.878125 59.563003)scale(0.1 -0.1)">
       <use xlink:href="#DejaVuSans-31"/>
       <use x="63.623047" xlink:href="#DejaVuSans-2e"/>
       <use x="95.410156" xlink:href="#DejaVuSans-30"/>
      </g>
     </g>
    </g>
    <g id="ytick_7">
     <g id="line2d_16">
      <g>
       <use style="stroke:#000000;stroke-width:0.8;" x="43.78125" xlink:href="#mf56f284991" y="12.254142"/>
      </g>
     </g>
     <g id="text_17">
      <!-- 1.2 -->
      <g transform="translate(20.878125 16.05336)scale(0.1 -0.1)">
       <use xlink:href="#DejaVuSans-31"/>
       <use x="63.623047" xlink:href="#DejaVuSans-2e"/>
       <use x="95.410156" xlink:href="#DejaVuSans-32"/>
      </g>
     </g>
    </g>
    <g id="text_18">
     <!-- Probability density -->
     <g transform="translate(14.798438 186.606781)rotate(-90)scale(0.1 -0.1)">
      <defs>
       <path d="M 1259 4147 
L 1259 2394 
L 2053 2394 
Q 2494 2394 2734 2622 
Q 2975 2850 2975 3272 
Q 2975 3691 2734 3919 
Q 2494 4147 2053 4147 
L 1259 4147 
z
M 628 4666 
L 2053 4666 
Q 2838 4666 3239 4311 
Q 3641 3956 3641 3272 
Q 3641 2581 3239 2228 
Q 2838 1875 2053 1875 
L 1259 1875 
L 1259 0 
L 628 0 
L 628 4666 
z
" id="DejaVuSans-50" transform="scale(0.015625)"/>
       <path d="M 3116 1747 
Q 3116 2381 2855 2742 
Q 2594 3103 2138 3103 
Q 1681 3103 1420 2742 
Q 1159 2381 1159 1747 
Q 1159 1113 1420 752 
Q 1681 391 2138 391 
Q 2594 391 2855 752 
Q 3116 1113 3116 1747 
z
M 1159 2969 
Q 1341 3281 1617 3432 
Q 1894 3584 2278 3584 
Q 2916 3584 3314 3078 
Q 3713 2572 3713 1747 
Q 3713 922 3314 415 
Q 2916 -91 2278 -91 
Q 1894 -91 1617 61 
Q 1341 213 1159 525 
L 1159 0 
L 581 0 
L 581 4863 
L 1159 4863 
L 1159 2969 
z
" id="DejaVuSans-62" transform="scale(0.015625)"/>
       <path d="M 2059 -325 
Q 1816 -950 1584 -1140 
Q 1353 -1331 966 -1331 
L 506 -1331 
L 506 -850 
L 844 -850 
Q 1081 -850 1212 -737 
Q 1344 -625 1503 -206 
L 1606 56 
L 191 3500 
L 800 3500 
L 1894 763 
L 2988 3500 
L 3597 3500 
L 2059 -325 
z
" id="DejaVuSans-79" transform="scale(0.015625)"/>
       <path d="M 2834 3397 
L 2834 2853 
Q 2591 2978 2328 3040 
Q 2066 3103 1784 3103 
Q 1356 3103 1142 2972 
Q 928 2841 928 2578 
Q 928 2378 1081 2264 
Q 1234 2150 1697 2047 
L 1894 2003 
Q 2506 1872 2764 1633 
Q 3022 1394 3022 966 
Q 3022 478 2636 193 
Q 2250 -91 1575 -91 
Q 1294 -91 989 -36 
Q 684 19 347 128 
L 347 722 
Q 666 556 975 473 
Q 1284 391 1588 391 
Q 1994 391 2212 530 
Q 2431 669 2431 922 
Q 2431 1156 2273 1281 
Q 2116 1406 1581 1522 
L 1381 1569 
Q 847 1681 609 1914 
Q 372 2147 372 2553 
Q 372 3047 722 3315 
Q 1072 3584 1716 3584 
Q 2034 3584 2315 3537 
Q 2597 3491 2834 3397 
z
" id="DejaVuSans-73" transform="scale(0.015625)"/>
      </defs>
      <use xlink:href="#DejaVuSans-50"/>
      <use x="58.552734" xlink:href="#DejaVuSans-72"/>
      <use x="97.416016" xlink:href="#DejaVuSans-6f"/>
      <use x="158.597656" xlink:href="#DejaVuSans-62"/>
      <use x="222.074219" xlink:href="#DejaVuSans-61"/>
      <use x="283.353516" xlink:href="#DejaVuSans-62"/>
      <use x="346.830078" xlink:href="#DejaVuSans-69"/>
      <use x="374.613281" xlink:href="#DejaVuSans-6c"/>
      <use x="402.396484" xlink:href="#DejaVuSans-69"/>
      <use x="430.179688" xlink:href="#DejaVuSans-74"/>
      <use x="469.388672" xlink:href="#DejaVuSans-79"/>
      <use x="528.568359" xlink:href="#DejaVuSans-20"/>
      <use x="560.355469" xlink:href="#DejaVuSans-64"/>
      <use x="623.832031" xlink:href="#DejaVuSans-65"/>
      <use x="685.355469" xlink:href="#DejaVuSans-6e"/>
      <use x="748.734375" xlink:href="#DejaVuSans-73"/>
      <use x="800.833984" xlink:href="#DejaVuSans-69"/>
      <use x="828.617188" xlink:href="#DejaVuSans-74"/>
      <use x="867.826172" xlink:href="#DejaVuSans-79"/>
     </g>
    </g>
   </g>
   <g id="line2d_17">
    <path clip-path="url(#p9994d883c4)" d="M 60.013977 273.312 
L 79.837728 231.835422 
L 90.237073 210.59085 
L 99.01152 193.150835 
L 106.811029 178.12965 
L 113.960578 164.834265 
L 120.460169 153.196311 
L 126.63478 142.579525 
L 132.484411 132.951319 
L 138.009063 124.270351 
L 143.208736 116.488623 
L 148.408408 109.103838 
L 153.283101 102.557744 
L 158.157794 96.391526 
L 162.707507 90.991237 
L 167.257221 85.944286 
L 171.481954 81.582774 
L 175.706688 77.541655 
L 179.606442 74.101614 
L 183.506197 70.945228 
L 187.405951 68.076992 
L 191.305705 65.500991 
L 194.88048 63.399516 
L 198.455255 61.549201 
L 202.03003 59.952258 
L 205.604804 58.6106 
L 209.179579 57.525831 
L 212.429374 56.763695 
L 215.67917 56.215694 
L 218.928965 55.882371 
L 222.17876 55.764054 
L 225.428555 55.86086 
L 228.678351 56.172694 
L 231.928146 56.699248 
L 235.177941 57.440001 
L 238.427736 58.39422 
L 242.002511 59.689281 
L 245.577286 61.239942 
L 249.152061 63.044345 
L 252.726836 65.100333 
L 256.30161 67.405445 
L 260.201365 70.200988 
L 264.101119 73.285742 
L 268.000873 76.655313 
L 271.900628 80.304904 
L 276.125361 84.568585 
L 280.350095 89.14767 
L 284.899809 94.422933 
L 289.449522 100.044884 
L 294.324215 106.440729 
L 299.198908 113.207811 
L 304.39858 120.818242 
L 309.598252 128.814657 
L 315.122904 137.711115 
L 320.972536 147.55265 
L 327.147147 158.377321 
L 333.646737 170.214112 
L 340.796287 183.703619 
L 348.595795 198.906128 
L 357.370243 216.51092 
L 367.769587 237.895474 
L 382.718646 269.207452 
L 384.668523 273.312 
L 384.668523 273.312 
" style="fill:none;stroke:#ff7f0e;stroke-linecap:square;stroke-width:1.5;"/>
   </g>
   <g id="patch_203">
    <path d="M 43.78125 273.312 
L 43.78125 7.2 
" style="fill:none;stroke:#000000;stroke-linecap:square;stroke-linejoin:miter;stroke-width:0.8;"/>
   </g>
   <g id="patch_204">
    <path d="M 400.90125 273.312 
L 400.90125 7.2 
" style="fill:none;stroke:#000000;stroke-linecap:square;stroke-linejoin:miter;stroke-width:0.8;"/>
   </g>
   <g id="patch_205">
    <path d="M 43.78125 273.312 
L 400.90125 273.312 
" style="fill:none;stroke:#000000;stroke-linecap:square;stroke-linejoin:miter;stroke-width:0.8;"/>
   </g>
   <g id="patch_206">
    <path d="M 43.78125 7.2 
L 400.90125 7.2 
" style="fill:none;stroke:#000000;stroke-linecap:square;stroke-linejoin:miter;stroke-width:0.8;"/>
   </g>
  </g>
 </g>
 <defs>
  <clipPath id="p9994d883c4">
   <rect height="266.112" width="357.12" x="43.78125" y="7.2"/>
  </clipPath>
 </defs>
</svg>
