<?xml version="1.0" encoding="utf-8" standalone="no"?>
<!DOCTYPE svg PUBLIC "-//W3C//DTD SVG 1.1//EN"
  "http://www.w3.org/Graphics/SVG/1.1/DTD/svg11.dtd">
<svg height="310.86825pt" version="1.1" viewBox="0 0 414.46375 310.86825" width="414.46375pt" xmlns="http://www.w3.org/2000/svg" xmlns:xlink="http://www.w3.org/1999/xlink">
 <metadata>
  <rdf:RDF xmlns:cc="http://creativecommons.org/ns#" xmlns:dc="http://purl.org/dc/elements/1.1/" xmlns:rdf="http://www.w3.org/1999/02/22-rdf-syntax-ns#">
   <cc:Work>
    <dc:type rdf:resource="http://purl.org/dc/dcmitype/StillImage"/>
    <dc:date>2021-06-18T12:39:14.750362</dc:date>
    <dc:format>image/svg+xml</dc:format>
    <dc:creator>
     <cc:Agent>
      <dc:title>Matplotlib v3.4.2, https://matplotlib.org/</dc:title>
     </cc:Agent>
    </dc:creator>
   </cc:Work>
  </rdf:RDF>
 </metadata>
 <defs>
  <style type="text/css">*{stroke-linecap:butt;stroke-linejoin:round;}</style>
 </defs>
 <g id="figure_1">
  <g id="patch_1">
   <path d="M 0 310.86825 
L 414.46375 310.86825 
L 414.46375 0 
L 0 0 
z
" style="fill:#ffffff;"/>
  </g>
  <g id="axes_1">
   <g id="patch_2">
    <path d="M 50.14375 273.312 
L 407.26375 273.312 
L 407.26375 7.2 
L 50.14375 7.2 
z
" style="fill:#ffffff;"/>
   </g>
   <g id="patch_3">
    <path clip-path="url(#pfc029bb275)" d="M 68.265606 273.312 
L 69.879427 273.312 
L 69.879427 269.575784 
L 68.265606 269.575784 
z
" style="fill:#1f77b4;"/>
   </g>
   <g id="patch_4">
    <path clip-path="url(#pfc029bb275)" d="M 69.879427 273.312 
L 71.493248 273.312 
L 71.493248 269.575784 
L 69.879427 269.575784 
z
" style="fill:#1f77b4;"/>
   </g>
   <g id="patch_5">
    <path clip-path="url(#pfc029bb275)" d="M 71.493248 273.312 
L 73.107069 273.312 
L 73.107069 265.839568 
L 71.493248 265.839568 
z
" style="fill:#1f77b4;"/>
   </g>
   <g id="patch_6">
    <path clip-path="url(#pfc029bb275)" d="M 73.107069 273.312 
L 74.72089 273.312 
L 74.72089 267.707676 
L 73.107069 267.707676 
z
" style="fill:#1f77b4;"/>
   </g>
   <g id="patch_7">
    <path clip-path="url(#pfc029bb275)" d="M 74.72089 273.312 
L 76.334711 273.312 
L 76.334711 266.46227 
L 74.72089 266.46227 
z
" style="fill:#1f77b4;"/>
   </g>
   <g id="patch_8">
    <path clip-path="url(#pfc029bb275)" d="M 76.334711 273.312 
L 77.948532 273.312 
L 77.948532 263.971459 
L 76.334711 263.971459 
z
" style="fill:#1f77b4;"/>
   </g>
   <g id="patch_9">
    <path clip-path="url(#pfc029bb275)" d="M 77.948532 273.312 
L 79.562354 273.312 
L 79.562354 263.971459 
L 77.948532 263.971459 
z
" style="fill:#1f77b4;"/>
   </g>
   <g id="patch_10">
    <path clip-path="url(#pfc029bb275)" d="M 79.562354 273.312 
L 81.176175 273.312 
L 81.176175 262.726054 
L 79.562354 262.726054 
z
" style="fill:#1f77b4;"/>
   </g>
   <g id="patch_11">
    <path clip-path="url(#pfc029bb275)" d="M 81.176175 273.312 
L 82.789996 273.312 
L 82.789996 260.857946 
L 81.176175 260.857946 
z
" style="fill:#1f77b4;"/>
   </g>
   <g id="patch_12">
    <path clip-path="url(#pfc029bb275)" d="M 82.789996 273.312 
L 84.403817 273.312 
L 84.403817 257.744432 
L 82.789996 257.744432 
z
" style="fill:#1f77b4;"/>
   </g>
   <g id="patch_13">
    <path clip-path="url(#pfc029bb275)" d="M 84.403817 273.312 
L 86.017638 273.312 
L 86.017638 258.367135 
L 84.403817 258.367135 
z
" style="fill:#1f77b4;"/>
   </g>
   <g id="patch_14">
    <path clip-path="url(#pfc029bb275)" d="M 86.017638 273.312 
L 87.631459 273.312 
L 87.631459 254.630919 
L 86.017638 254.630919 
z
" style="fill:#1f77b4;"/>
   </g>
   <g id="patch_15">
    <path clip-path="url(#pfc029bb275)" d="M 87.631459 273.312 
L 89.24528 273.312 
L 89.24528 260.235243 
L 87.631459 260.235243 
z
" style="fill:#1f77b4;"/>
   </g>
   <g id="patch_16">
    <path clip-path="url(#pfc029bb275)" d="M 89.24528 273.312 
L 90.859101 273.312 
L 90.859101 249.026595 
L 89.24528 249.026595 
z
" style="fill:#1f77b4;"/>
   </g>
   <g id="patch_17">
    <path clip-path="url(#pfc029bb275)" d="M 90.859101 273.312 
L 92.472922 273.312 
L 92.472922 258.367135 
L 90.859101 258.367135 
z
" style="fill:#1f77b4;"/>
   </g>
   <g id="patch_18">
    <path clip-path="url(#pfc029bb275)" d="M 92.472922 273.312 
L 94.086743 273.312 
L 94.086743 254.008216 
L 92.472922 254.008216 
z
" style="fill:#1f77b4;"/>
   </g>
   <g id="patch_19">
    <path clip-path="url(#pfc029bb275)" d="M 94.086743 273.312 
L 95.700564 273.312 
L 95.700564 244.044973 
L 94.086743 244.044973 
z
" style="fill:#1f77b4;"/>
   </g>
   <g id="patch_20">
    <path clip-path="url(#pfc029bb275)" d="M 95.700564 273.312 
L 97.314385 273.312 
L 97.314385 250.272 
L 95.700564 250.272 
z
" style="fill:#1f77b4;"/>
   </g>
   <g id="patch_21">
    <path clip-path="url(#pfc029bb275)" d="M 97.314385 273.312 
L 98.928206 273.312 
L 98.928206 239.063351 
L 97.314385 239.063351 
z
" style="fill:#1f77b4;"/>
   </g>
   <g id="patch_22">
    <path clip-path="url(#pfc029bb275)" d="M 98.928206 273.312 
L 100.542027 273.312 
L 100.542027 244.044973 
L 98.928206 244.044973 
z
" style="fill:#1f77b4;"/>
   </g>
   <g id="patch_23">
    <path clip-path="url(#pfc029bb275)" d="M 100.542027 273.312 
L 102.155848 273.312 
L 102.155848 241.554162 
L 100.542027 241.554162 
z
" style="fill:#1f77b4;"/>
   </g>
   <g id="patch_24">
    <path clip-path="url(#pfc029bb275)" d="M 102.155848 273.312 
L 103.76967 273.312 
L 103.76967 249.026595 
L 102.155848 249.026595 
z
" style="fill:#1f77b4;"/>
   </g>
   <g id="patch_25">
    <path clip-path="url(#pfc029bb275)" d="M 103.76967 273.312 
L 105.383491 273.312 
L 105.383491 246.535784 
L 103.76967 246.535784 
z
" style="fill:#1f77b4;"/>
   </g>
   <g id="patch_26">
    <path clip-path="url(#pfc029bb275)" d="M 105.383491 273.312 
L 106.997312 273.312 
L 106.997312 240.931459 
L 105.383491 240.931459 
z
" style="fill:#1f77b4;"/>
   </g>
   <g id="patch_27">
    <path clip-path="url(#pfc029bb275)" d="M 106.997312 273.312 
L 108.611133 273.312 
L 108.611133 244.667676 
L 106.997312 244.667676 
z
" style="fill:#1f77b4;"/>
   </g>
   <g id="patch_28">
    <path clip-path="url(#pfc029bb275)" d="M 108.611133 273.312 
L 110.224954 273.312 
L 110.224954 240.931459 
L 108.611133 240.931459 
z
" style="fill:#1f77b4;"/>
   </g>
   <g id="patch_29">
    <path clip-path="url(#pfc029bb275)" d="M 110.224954 273.312 
L 111.838775 273.312 
L 111.838775 244.667676 
L 110.224954 244.667676 
z
" style="fill:#1f77b4;"/>
   </g>
   <g id="patch_30">
    <path clip-path="url(#pfc029bb275)" d="M 111.838775 273.312 
L 113.452596 273.312 
L 113.452596 231.590919 
L 111.838775 231.590919 
z
" style="fill:#1f77b4;"/>
   </g>
   <g id="patch_31">
    <path clip-path="url(#pfc029bb275)" d="M 113.452596 273.312 
L 115.066417 273.312 
L 115.066417 244.044973 
L 113.452596 244.044973 
z
" style="fill:#1f77b4;"/>
   </g>
   <g id="patch_32">
    <path clip-path="url(#pfc029bb275)" d="M 115.066417 273.312 
L 116.680238 273.312 
L 116.680238 225.986595 
L 115.066417 225.986595 
z
" style="fill:#1f77b4;"/>
   </g>
   <g id="patch_33">
    <path clip-path="url(#pfc029bb275)" d="M 116.680238 273.312 
L 118.294059 273.312 
L 118.294059 225.986595 
L 116.680238 225.986595 
z
" style="fill:#1f77b4;"/>
   </g>
   <g id="patch_34">
    <path clip-path="url(#pfc029bb275)" d="M 118.294059 273.312 
L 119.90788 273.312 
L 119.90788 232.836324 
L 118.294059 232.836324 
z
" style="fill:#1f77b4;"/>
   </g>
   <g id="patch_35">
    <path clip-path="url(#pfc029bb275)" d="M 119.90788 273.312 
L 121.521701 273.312 
L 121.521701 237.195243 
L 119.90788 237.195243 
z
" style="fill:#1f77b4;"/>
   </g>
   <g id="patch_36">
    <path clip-path="url(#pfc029bb275)" d="M 121.521701 273.312 
L 123.135522 273.312 
L 123.135522 230.968216 
L 121.521701 230.968216 
z
" style="fill:#1f77b4;"/>
   </g>
   <g id="patch_37">
    <path clip-path="url(#pfc029bb275)" d="M 123.135522 273.312 
L 124.749343 273.312 
L 124.749343 226.609297 
L 123.135522 226.609297 
z
" style="fill:#1f77b4;"/>
   </g>
   <g id="patch_38">
    <path clip-path="url(#pfc029bb275)" d="M 124.749343 273.312 
L 126.363164 273.312 
L 126.363164 227.854703 
L 124.749343 227.854703 
z
" style="fill:#1f77b4;"/>
   </g>
   <g id="patch_39">
    <path clip-path="url(#pfc029bb275)" d="M 126.363164 273.312 
L 127.976985 273.312 
L 127.976985 227.232 
L 126.363164 227.232 
z
" style="fill:#1f77b4;"/>
   </g>
   <g id="patch_40">
    <path clip-path="url(#pfc029bb275)" d="M 127.976985 273.312 
L 129.590807 273.312 
L 129.590807 218.514162 
L 127.976985 218.514162 
z
" style="fill:#1f77b4;"/>
   </g>
   <g id="patch_41">
    <path clip-path="url(#pfc029bb275)" d="M 129.590807 273.312 
L 131.204628 273.312 
L 131.204628 231.590919 
L 129.590807 231.590919 
z
" style="fill:#1f77b4;"/>
   </g>
   <g id="patch_42">
    <path clip-path="url(#pfc029bb275)" d="M 131.204628 273.312 
L 132.818449 273.312 
L 132.818449 237.195243 
L 131.204628 237.195243 
z
" style="fill:#1f77b4;"/>
   </g>
   <g id="patch_43">
    <path clip-path="url(#pfc029bb275)" d="M 132.818449 273.312 
L 134.43227 273.312 
L 134.43227 226.609297 
L 132.818449 226.609297 
z
" style="fill:#1f77b4;"/>
   </g>
   <g id="patch_44">
    <path clip-path="url(#pfc029bb275)" d="M 134.43227 273.312 
L 136.046091 273.312 
L 136.046091 222.250378 
L 134.43227 222.250378 
z
" style="fill:#1f77b4;"/>
   </g>
   <g id="patch_45">
    <path clip-path="url(#pfc029bb275)" d="M 136.046091 273.312 
L 137.659912 273.312 
L 137.659912 224.118486 
L 136.046091 224.118486 
z
" style="fill:#1f77b4;"/>
   </g>
   <g id="patch_46">
    <path clip-path="url(#pfc029bb275)" d="M 137.659912 273.312 
L 139.273733 273.312 
L 139.273733 213.532541 
L 137.659912 213.532541 
z
" style="fill:#1f77b4;"/>
   </g>
   <g id="patch_47">
    <path clip-path="url(#pfc029bb275)" d="M 139.273733 273.312 
L 140.887554 273.312 
L 140.887554 208.550919 
L 139.273733 208.550919 
z
" style="fill:#1f77b4;"/>
   </g>
   <g id="patch_48">
    <path clip-path="url(#pfc029bb275)" d="M 140.887554 273.312 
L 142.501375 273.312 
L 142.501375 216.023351 
L 140.887554 216.023351 
z
" style="fill:#1f77b4;"/>
   </g>
   <g id="patch_49">
    <path clip-path="url(#pfc029bb275)" d="M 142.501375 273.312 
L 144.115196 273.312 
L 144.115196 224.741189 
L 142.501375 224.741189 
z
" style="fill:#1f77b4;"/>
   </g>
   <g id="patch_50">
    <path clip-path="url(#pfc029bb275)" d="M 144.115196 273.312 
L 145.729017 273.312 
L 145.729017 206.060108 
L 144.115196 206.060108 
z
" style="fill:#1f77b4;"/>
   </g>
   <g id="patch_51">
    <path clip-path="url(#pfc029bb275)" d="M 145.729017 273.312 
L 147.342838 273.312 
L 147.342838 209.796324 
L 145.729017 209.796324 
z
" style="fill:#1f77b4;"/>
   </g>
   <g id="patch_52">
    <path clip-path="url(#pfc029bb275)" d="M 147.342838 273.312 
L 148.956659 273.312 
L 148.956659 207.305514 
L 147.342838 207.305514 
z
" style="fill:#1f77b4;"/>
   </g>
   <g id="patch_53">
    <path clip-path="url(#pfc029bb275)" d="M 148.956659 273.312 
L 150.57048 273.312 
L 150.57048 217.891459 
L 148.956659 217.891459 
z
" style="fill:#1f77b4;"/>
   </g>
   <g id="patch_54">
    <path clip-path="url(#pfc029bb275)" d="M 150.57048 273.312 
L 152.184301 273.312 
L 152.184301 211.04173 
L 150.57048 211.04173 
z
" style="fill:#1f77b4;"/>
   </g>
   <g id="patch_55">
    <path clip-path="url(#pfc029bb275)" d="M 152.184301 273.312 
L 153.798123 273.312 
L 153.798123 217.268757 
L 152.184301 217.268757 
z
" style="fill:#1f77b4;"/>
   </g>
   <g id="patch_56">
    <path clip-path="url(#pfc029bb275)" d="M 153.798123 273.312 
L 155.411944 273.312 
L 155.411944 207.305514 
L 153.798123 207.305514 
z
" style="fill:#1f77b4;"/>
   </g>
   <g id="patch_57">
    <path clip-path="url(#pfc029bb275)" d="M 155.411944 273.312 
L 157.025765 273.312 
L 157.025765 208.550919 
L 155.411944 208.550919 
z
" style="fill:#1f77b4;"/>
   </g>
   <g id="patch_58">
    <path clip-path="url(#pfc029bb275)" d="M 157.025765 273.312 
L 158.639586 273.312 
L 158.639586 197.34227 
L 157.025765 197.34227 
z
" style="fill:#1f77b4;"/>
   </g>
   <g id="patch_59">
    <path clip-path="url(#pfc029bb275)" d="M 158.639586 273.312 
L 160.253407 273.312 
L 160.253407 210.419027 
L 158.639586 210.419027 
z
" style="fill:#1f77b4;"/>
   </g>
   <g id="patch_60">
    <path clip-path="url(#pfc029bb275)" d="M 160.253407 273.312 
L 161.867228 273.312 
L 161.867228 196.096865 
L 160.253407 196.096865 
z
" style="fill:#1f77b4;"/>
   </g>
   <g id="patch_61">
    <path clip-path="url(#pfc029bb275)" d="M 161.867228 273.312 
L 163.481049 273.312 
L 163.481049 179.906595 
L 161.867228 179.906595 
z
" style="fill:#1f77b4;"/>
   </g>
   <g id="patch_62">
    <path clip-path="url(#pfc029bb275)" d="M 163.481049 273.312 
L 165.09487 273.312 
L 165.09487 197.964973 
L 163.481049 197.964973 
z
" style="fill:#1f77b4;"/>
   </g>
   <g id="patch_63">
    <path clip-path="url(#pfc029bb275)" d="M 165.09487 273.312 
L 166.708691 273.312 
L 166.708691 202.946595 
L 165.09487 202.946595 
z
" style="fill:#1f77b4;"/>
   </g>
   <g id="patch_64">
    <path clip-path="url(#pfc029bb275)" d="M 166.708691 273.312 
L 168.322512 273.312 
L 168.322512 206.682811 
L 166.708691 206.682811 
z
" style="fill:#1f77b4;"/>
   </g>
   <g id="patch_65">
    <path clip-path="url(#pfc029bb275)" d="M 168.322512 273.312 
L 169.936333 273.312 
L 169.936333 207.928216 
L 168.322512 207.928216 
z
" style="fill:#1f77b4;"/>
   </g>
   <g id="patch_66">
    <path clip-path="url(#pfc029bb275)" d="M 169.936333 273.312 
L 171.550154 273.312 
L 171.550154 196.719568 
L 169.936333 196.719568 
z
" style="fill:#1f77b4;"/>
   </g>
   <g id="patch_67">
    <path clip-path="url(#pfc029bb275)" d="M 171.550154 273.312 
L 173.163975 273.312 
L 173.163975 191.737946 
L 171.550154 191.737946 
z
" style="fill:#1f77b4;"/>
   </g>
   <g id="patch_68">
    <path clip-path="url(#pfc029bb275)" d="M 173.163975 273.312 
L 174.777796 273.312 
L 174.777796 197.34227 
L 173.163975 197.34227 
z
" style="fill:#1f77b4;"/>
   </g>
   <g id="patch_69">
    <path clip-path="url(#pfc029bb275)" d="M 174.777796 273.312 
L 176.391617 273.312 
L 176.391617 196.096865 
L 174.777796 196.096865 
z
" style="fill:#1f77b4;"/>
   </g>
   <g id="patch_70">
    <path clip-path="url(#pfc029bb275)" d="M 176.391617 273.312 
L 178.005439 273.312 
L 178.005439 189.869838 
L 176.391617 189.869838 
z
" style="fill:#1f77b4;"/>
   </g>
   <g id="patch_71">
    <path clip-path="url(#pfc029bb275)" d="M 178.005439 273.312 
L 179.61926 273.312 
L 179.61926 177.415784 
L 178.005439 177.415784 
z
" style="fill:#1f77b4;"/>
   </g>
   <g id="patch_72">
    <path clip-path="url(#pfc029bb275)" d="M 179.61926 273.312 
L 181.233081 273.312 
L 181.233081 191.115243 
L 179.61926 191.115243 
z
" style="fill:#1f77b4;"/>
   </g>
   <g id="patch_73">
    <path clip-path="url(#pfc029bb275)" d="M 181.233081 273.312 
L 182.846902 273.312 
L 182.846902 169.320649 
L 181.233081 169.320649 
z
" style="fill:#1f77b4;"/>
   </g>
   <g id="patch_74">
    <path clip-path="url(#pfc029bb275)" d="M 182.846902 273.312 
L 184.460723 273.312 
L 184.460723 188.00173 
L 182.846902 188.00173 
z
" style="fill:#1f77b4;"/>
   </g>
   <g id="patch_75">
    <path clip-path="url(#pfc029bb275)" d="M 184.460723 273.312 
L 186.074544 273.312 
L 186.074544 187.379027 
L 184.460723 187.379027 
z
" style="fill:#1f77b4;"/>
   </g>
   <g id="patch_76">
    <path clip-path="url(#pfc029bb275)" d="M 186.074544 273.312 
L 187.688365 273.312 
L 187.688365 185.510919 
L 186.074544 185.510919 
z
" style="fill:#1f77b4;"/>
   </g>
   <g id="patch_77">
    <path clip-path="url(#pfc029bb275)" d="M 187.688365 273.312 
L 189.302186 273.312 
L 189.302186 181.152 
L 187.688365 181.152 
z
" style="fill:#1f77b4;"/>
   </g>
   <g id="patch_78">
    <path clip-path="url(#pfc029bb275)" d="M 189.302186 273.312 
L 190.916007 273.312 
L 190.916007 181.774703 
L 189.302186 181.774703 
z
" style="fill:#1f77b4;"/>
   </g>
   <g id="patch_79">
    <path clip-path="url(#pfc029bb275)" d="M 190.916007 273.312 
L 192.529828 273.312 
L 192.529828 169.320649 
L 190.916007 169.320649 
z
" style="fill:#1f77b4;"/>
   </g>
   <g id="patch_80">
    <path clip-path="url(#pfc029bb275)" d="M 192.529828 273.312 
L 194.143649 273.312 
L 194.143649 179.283892 
L 192.529828 179.283892 
z
" style="fill:#1f77b4;"/>
   </g>
   <g id="patch_81">
    <path clip-path="url(#pfc029bb275)" d="M 194.143649 273.312 
L 195.75747 273.312 
L 195.75747 171.188757 
L 194.143649 171.188757 
z
" style="fill:#1f77b4;"/>
   </g>
   <g id="patch_82">
    <path clip-path="url(#pfc029bb275)" d="M 195.75747 273.312 
L 197.371291 273.312 
L 197.371291 156.866595 
L 195.75747 156.866595 
z
" style="fill:#1f77b4;"/>
   </g>
   <g id="patch_83">
    <path clip-path="url(#pfc029bb275)" d="M 197.371291 273.312 
L 198.985112 273.312 
L 198.985112 179.906595 
L 197.371291 179.906595 
z
" style="fill:#1f77b4;"/>
   </g>
   <g id="patch_84">
    <path clip-path="url(#pfc029bb275)" d="M 198.985112 273.312 
L 200.598933 273.312 
L 200.598933 162.470919 
L 198.985112 162.470919 
z
" style="fill:#1f77b4;"/>
   </g>
   <g id="patch_85">
    <path clip-path="url(#pfc029bb275)" d="M 200.598933 273.312 
L 202.212754 273.312 
L 202.212754 159.357405 
L 200.598933 159.357405 
z
" style="fill:#1f77b4;"/>
   </g>
   <g id="patch_86">
    <path clip-path="url(#pfc029bb275)" d="M 202.212754 273.312 
L 203.826576 273.312 
L 203.826576 173.679568 
L 202.212754 173.679568 
z
" style="fill:#1f77b4;"/>
   </g>
   <g id="patch_87">
    <path clip-path="url(#pfc029bb275)" d="M 203.826576 273.312 
L 205.440397 273.312 
L 205.440397 174.924973 
L 203.826576 174.924973 
z
" style="fill:#1f77b4;"/>
   </g>
   <g id="patch_88">
    <path clip-path="url(#pfc029bb275)" d="M 205.440397 273.312 
L 207.054218 273.312 
L 207.054218 176.793081 
L 205.440397 176.793081 
z
" style="fill:#1f77b4;"/>
   </g>
   <g id="patch_89">
    <path clip-path="url(#pfc029bb275)" d="M 207.054218 273.312 
L 208.668039 273.312 
L 208.668039 176.793081 
L 207.054218 176.793081 
z
" style="fill:#1f77b4;"/>
   </g>
   <g id="patch_90">
    <path clip-path="url(#pfc029bb275)" d="M 208.668039 273.312 
L 210.28186 273.312 
L 210.28186 172.434162 
L 208.668039 172.434162 
z
" style="fill:#1f77b4;"/>
   </g>
   <g id="patch_91">
    <path clip-path="url(#pfc029bb275)" d="M 210.28186 273.312 
L 211.895681 273.312 
L 211.895681 154.998486 
L 210.28186 154.998486 
z
" style="fill:#1f77b4;"/>
   </g>
   <g id="patch_92">
    <path clip-path="url(#pfc029bb275)" d="M 211.895681 273.312 
L 213.509502 273.312 
L 213.509502 160.602811 
L 211.895681 160.602811 
z
" style="fill:#1f77b4;"/>
   </g>
   <g id="patch_93">
    <path clip-path="url(#pfc029bb275)" d="M 213.509502 273.312 
L 215.123323 273.312 
L 215.123323 161.225514 
L 213.509502 161.225514 
z
" style="fill:#1f77b4;"/>
   </g>
   <g id="patch_94">
    <path clip-path="url(#pfc029bb275)" d="M 215.123323 273.312 
L 216.737144 273.312 
L 216.737144 156.866595 
L 215.123323 156.866595 
z
" style="fill:#1f77b4;"/>
   </g>
   <g id="patch_95">
    <path clip-path="url(#pfc029bb275)" d="M 216.737144 273.312 
L 218.350965 273.312 
L 218.350965 149.394162 
L 216.737144 149.394162 
z
" style="fill:#1f77b4;"/>
   </g>
   <g id="patch_96">
    <path clip-path="url(#pfc029bb275)" d="M 218.350965 273.312 
L 219.964786 273.312 
L 219.964786 145.657946 
L 218.350965 145.657946 
z
" style="fill:#1f77b4;"/>
   </g>
   <g id="patch_97">
    <path clip-path="url(#pfc029bb275)" d="M 219.964786 273.312 
L 221.578607 273.312 
L 221.578607 148.771459 
L 219.964786 148.771459 
z
" style="fill:#1f77b4;"/>
   </g>
   <g id="patch_98">
    <path clip-path="url(#pfc029bb275)" d="M 221.578607 273.312 
L 223.192428 273.312 
L 223.192428 153.753081 
L 221.578607 153.753081 
z
" style="fill:#1f77b4;"/>
   </g>
   <g id="patch_99">
    <path clip-path="url(#pfc029bb275)" d="M 223.192428 273.312 
L 224.806249 273.312 
L 224.806249 152.507676 
L 223.192428 152.507676 
z
" style="fill:#1f77b4;"/>
   </g>
   <g id="patch_100">
    <path clip-path="url(#pfc029bb275)" d="M 224.806249 273.312 
L 226.42007 273.312 
L 226.42007 154.998486 
L 224.806249 154.998486 
z
" style="fill:#1f77b4;"/>
   </g>
   <g id="patch_101">
    <path clip-path="url(#pfc029bb275)" d="M 226.42007 273.312 
L 228.033892 273.312 
L 228.033892 147.526054 
L 226.42007 147.526054 
z
" style="fill:#1f77b4;"/>
   </g>
   <g id="patch_102">
    <path clip-path="url(#pfc029bb275)" d="M 228.033892 273.312 
L 229.647713 273.312 
L 229.647713 136.317405 
L 228.033892 136.317405 
z
" style="fill:#1f77b4;"/>
   </g>
   <g id="patch_103">
    <path clip-path="url(#pfc029bb275)" d="M 229.647713 273.312 
L 231.261534 273.312 
L 231.261534 154.375784 
L 229.647713 154.375784 
z
" style="fill:#1f77b4;"/>
   </g>
   <g id="patch_104">
    <path clip-path="url(#pfc029bb275)" d="M 231.261534 273.312 
L 232.875355 273.312 
L 232.875355 159.980108 
L 231.261534 159.980108 
z
" style="fill:#1f77b4;"/>
   </g>
   <g id="patch_105">
    <path clip-path="url(#pfc029bb275)" d="M 232.875355 273.312 
L 234.489176 273.312 
L 234.489176 142.544432 
L 232.875355 142.544432 
z
" style="fill:#1f77b4;"/>
   </g>
   <g id="patch_106">
    <path clip-path="url(#pfc029bb275)" d="M 234.489176 273.312 
L 236.102997 273.312 
L 236.102997 149.394162 
L 234.489176 149.394162 
z
" style="fill:#1f77b4;"/>
   </g>
   <g id="patch_107">
    <path clip-path="url(#pfc029bb275)" d="M 236.102997 273.312 
L 237.716818 273.312 
L 237.716818 148.148757 
L 236.102997 148.148757 
z
" style="fill:#1f77b4;"/>
   </g>
   <g id="patch_108">
    <path clip-path="url(#pfc029bb275)" d="M 237.716818 273.312 
L 239.330639 273.312 
L 239.330639 141.92173 
L 237.716818 141.92173 
z
" style="fill:#1f77b4;"/>
   </g>
   <g id="patch_109">
    <path clip-path="url(#pfc029bb275)" d="M 239.330639 273.312 
L 240.94446 273.312 
L 240.94446 127.599568 
L 239.330639 127.599568 
z
" style="fill:#1f77b4;"/>
   </g>
   <g id="patch_110">
    <path clip-path="url(#pfc029bb275)" d="M 240.94446 273.312 
L 242.558281 273.312 
L 242.558281 138.185514 
L 240.94446 138.185514 
z
" style="fill:#1f77b4;"/>
   </g>
   <g id="patch_111">
    <path clip-path="url(#pfc029bb275)" d="M 242.558281 273.312 
L 244.172102 273.312 
L 244.172102 137.562811 
L 242.558281 137.562811 
z
" style="fill:#1f77b4;"/>
   </g>
   <g id="patch_112">
    <path clip-path="url(#pfc029bb275)" d="M 244.172102 273.312 
L 245.785923 273.312 
L 245.785923 141.299027 
L 244.172102 141.299027 
z
" style="fill:#1f77b4;"/>
   </g>
   <g id="patch_113">
    <path clip-path="url(#pfc029bb275)" d="M 245.785923 273.312 
L 247.399744 273.312 
L 247.399744 139.430919 
L 245.785923 139.430919 
z
" style="fill:#1f77b4;"/>
   </g>
   <g id="patch_114">
    <path clip-path="url(#pfc029bb275)" d="M 247.399744 273.312 
L 249.013565 273.312 
L 249.013565 133.203892 
L 247.399744 133.203892 
z
" style="fill:#1f77b4;"/>
   </g>
   <g id="patch_115">
    <path clip-path="url(#pfc029bb275)" d="M 249.013565 273.312 
L 250.627386 273.312 
L 250.627386 124.486054 
L 249.013565 124.486054 
z
" style="fill:#1f77b4;"/>
   </g>
   <g id="patch_116">
    <path clip-path="url(#pfc029bb275)" d="M 250.627386 273.312 
L 252.241208 273.312 
L 252.241208 140.676324 
L 250.627386 140.676324 
z
" style="fill:#1f77b4;"/>
   </g>
   <g id="patch_117">
    <path clip-path="url(#pfc029bb275)" d="M 252.241208 273.312 
L 253.855029 273.312 
L 253.855029 133.826595 
L 252.241208 133.826595 
z
" style="fill:#1f77b4;"/>
   </g>
   <g id="patch_118">
    <path clip-path="url(#pfc029bb275)" d="M 253.855029 273.312 
L 255.46885 273.312 
L 255.46885 121.995243 
L 253.855029 121.995243 
z
" style="fill:#1f77b4;"/>
   </g>
   <g id="patch_119">
    <path clip-path="url(#pfc029bb275)" d="M 255.46885 273.312 
L 257.082671 273.312 
L 257.082671 130.090378 
L 255.46885 130.090378 
z
" style="fill:#1f77b4;"/>
   </g>
   <g id="patch_120">
    <path clip-path="url(#pfc029bb275)" d="M 257.082671 273.312 
L 258.696492 273.312 
L 258.696492 121.995243 
L 257.082671 121.995243 
z
" style="fill:#1f77b4;"/>
   </g>
   <g id="patch_121">
    <path clip-path="url(#pfc029bb275)" d="M 258.696492 273.312 
L 260.310313 273.312 
L 260.310313 133.203892 
L 258.696492 133.203892 
z
" style="fill:#1f77b4;"/>
   </g>
   <g id="patch_122">
    <path clip-path="url(#pfc029bb275)" d="M 260.310313 273.312 
L 261.924134 273.312 
L 261.924134 125.108757 
L 260.310313 125.108757 
z
" style="fill:#1f77b4;"/>
   </g>
   <g id="patch_123">
    <path clip-path="url(#pfc029bb275)" d="M 261.924134 273.312 
L 263.537955 273.312 
L 263.537955 130.090378 
L 261.924134 130.090378 
z
" style="fill:#1f77b4;"/>
   </g>
   <g id="patch_124">
    <path clip-path="url(#pfc029bb275)" d="M 263.537955 273.312 
L 265.151776 273.312 
L 265.151776 131.958486 
L 263.537955 131.958486 
z
" style="fill:#1f77b4;"/>
   </g>
   <g id="patch_125">
    <path clip-path="url(#pfc029bb275)" d="M 265.151776 273.312 
L 266.765597 273.312 
L 266.765597 96.464432 
L 265.151776 96.464432 
z
" style="fill:#1f77b4;"/>
   </g>
   <g id="patch_126">
    <path clip-path="url(#pfc029bb275)" d="M 266.765597 273.312 
L 268.379418 273.312 
L 268.379418 102.691459 
L 266.765597 102.691459 
z
" style="fill:#1f77b4;"/>
   </g>
   <g id="patch_127">
    <path clip-path="url(#pfc029bb275)" d="M 268.379418 273.312 
L 269.993239 273.312 
L 269.993239 120.749838 
L 268.379418 120.749838 
z
" style="fill:#1f77b4;"/>
   </g>
   <g id="patch_128">
    <path clip-path="url(#pfc029bb275)" d="M 269.993239 273.312 
L 271.60706 273.312 
L 271.60706 97.709838 
L 269.993239 97.709838 
z
" style="fill:#1f77b4;"/>
   </g>
   <g id="patch_129">
    <path clip-path="url(#pfc029bb275)" d="M 271.60706 273.312 
L 273.220881 273.312 
L 273.220881 108.918486 
L 271.60706 108.918486 
z
" style="fill:#1f77b4;"/>
   </g>
   <g id="patch_130">
    <path clip-path="url(#pfc029bb275)" d="M 273.220881 273.312 
L 274.834702 273.312 
L 274.834702 114.522811 
L 273.220881 114.522811 
z
" style="fill:#1f77b4;"/>
   </g>
   <g id="patch_131">
    <path clip-path="url(#pfc029bb275)" d="M 274.834702 273.312 
L 276.448523 273.312 
L 276.448523 110.786595 
L 274.834702 110.786595 
z
" style="fill:#1f77b4;"/>
   </g>
   <g id="patch_132">
    <path clip-path="url(#pfc029bb275)" d="M 276.448523 273.312 
L 278.062345 273.312 
L 278.062345 109.541189 
L 276.448523 109.541189 
z
" style="fill:#1f77b4;"/>
   </g>
   <g id="patch_133">
    <path clip-path="url(#pfc029bb275)" d="M 278.062345 273.312 
L 279.676166 273.312 
L 279.676166 126.354162 
L 278.062345 126.354162 
z
" style="fill:#1f77b4;"/>
   </g>
   <g id="patch_134">
    <path clip-path="url(#pfc029bb275)" d="M 279.676166 273.312 
L 281.289987 273.312 
L 281.289987 95.84173 
L 279.676166 95.84173 
z
" style="fill:#1f77b4;"/>
   </g>
   <g id="patch_135">
    <path clip-path="url(#pfc029bb275)" d="M 281.289987 273.312 
L 282.903808 273.312 
L 282.903808 117.636324 
L 281.289987 117.636324 
z
" style="fill:#1f77b4;"/>
   </g>
   <g id="patch_136">
    <path clip-path="url(#pfc029bb275)" d="M 282.903808 273.312 
L 284.517629 273.312 
L 284.517629 120.749838 
L 282.903808 120.749838 
z
" style="fill:#1f77b4;"/>
   </g>
   <g id="patch_137">
    <path clip-path="url(#pfc029bb275)" d="M 284.517629 273.312 
L 286.13145 273.312 
L 286.13145 102.068757 
L 284.517629 102.068757 
z
" style="fill:#1f77b4;"/>
   </g>
   <g id="patch_138">
    <path clip-path="url(#pfc029bb275)" d="M 286.13145 273.312 
L 287.745271 273.312 
L 287.745271 84.010378 
L 286.13145 84.010378 
z
" style="fill:#1f77b4;"/>
   </g>
   <g id="patch_139">
    <path clip-path="url(#pfc029bb275)" d="M 287.745271 273.312 
L 289.359092 273.312 
L 289.359092 98.332541 
L 287.745271 98.332541 
z
" style="fill:#1f77b4;"/>
   </g>
   <g id="patch_140">
    <path clip-path="url(#pfc029bb275)" d="M 289.359092 273.312 
L 290.972913 273.312 
L 290.972913 100.823351 
L 289.359092 100.823351 
z
" style="fill:#1f77b4;"/>
   </g>
   <g id="patch_141">
    <path clip-path="url(#pfc029bb275)" d="M 290.972913 273.312 
L 292.586734 273.312 
L 292.586734 104.559568 
L 290.972913 104.559568 
z
" style="fill:#1f77b4;"/>
   </g>
   <g id="patch_142">
    <path clip-path="url(#pfc029bb275)" d="M 292.586734 273.312 
L 294.200555 273.312 
L 294.200555 102.691459 
L 292.586734 102.691459 
z
" style="fill:#1f77b4;"/>
   </g>
   <g id="patch_143">
    <path clip-path="url(#pfc029bb275)" d="M 294.200555 273.312 
L 295.814376 273.312 
L 295.814376 109.541189 
L 294.200555 109.541189 
z
" style="fill:#1f77b4;"/>
   </g>
   <g id="patch_144">
    <path clip-path="url(#pfc029bb275)" d="M 295.814376 273.312 
L 297.428197 273.312 
L 297.428197 97.087135 
L 295.814376 97.087135 
z
" style="fill:#1f77b4;"/>
   </g>
   <g id="patch_145">
    <path clip-path="url(#pfc029bb275)" d="M 297.428197 273.312 
L 299.042018 273.312 
L 299.042018 102.691459 
L 297.428197 102.691459 
z
" style="fill:#1f77b4;"/>
   </g>
   <g id="patch_146">
    <path clip-path="url(#pfc029bb275)" d="M 299.042018 273.312 
L 300.655839 273.312 
L 300.655839 88.369297 
L 299.042018 88.369297 
z
" style="fill:#1f77b4;"/>
   </g>
   <g id="patch_147">
    <path clip-path="url(#pfc029bb275)" d="M 300.655839 273.312 
L 302.269661 273.312 
L 302.269661 111.409297 
L 300.655839 111.409297 
z
" style="fill:#1f77b4;"/>
   </g>
   <g id="patch_148">
    <path clip-path="url(#pfc029bb275)" d="M 302.269661 273.312 
L 303.883482 273.312 
L 303.883482 106.427676 
L 302.269661 106.427676 
z
" style="fill:#1f77b4;"/>
   </g>
   <g id="patch_149">
    <path clip-path="url(#pfc029bb275)" d="M 303.883482 273.312 
L 305.497303 273.312 
L 305.497303 80.896865 
L 303.883482 80.896865 
z
" style="fill:#1f77b4;"/>
   </g>
   <g id="patch_150">
    <path clip-path="url(#pfc029bb275)" d="M 305.497303 273.312 
L 307.111124 273.312 
L 307.111124 84.010378 
L 305.497303 84.010378 
z
" style="fill:#1f77b4;"/>
   </g>
   <g id="patch_151">
    <path clip-path="url(#pfc029bb275)" d="M 307.111124 273.312 
L 308.724945 273.312 
L 308.724945 79.028757 
L 307.111124 79.028757 
z
" style="fill:#1f77b4;"/>
   </g>
   <g id="patch_152">
    <path clip-path="url(#pfc029bb275)" d="M 308.724945 273.312 
L 310.338766 273.312 
L 310.338766 99.577946 
L 308.724945 99.577946 
z
" style="fill:#1f77b4;"/>
   </g>
   <g id="patch_153">
    <path clip-path="url(#pfc029bb275)" d="M 310.338766 273.312 
L 311.952587 273.312 
L 311.952587 82.14227 
L 310.338766 82.14227 
z
" style="fill:#1f77b4;"/>
   </g>
   <g id="patch_154">
    <path clip-path="url(#pfc029bb275)" d="M 311.952587 273.312 
L 313.566408 273.312 
L 313.566408 88.992 
L 311.952587 88.992 
z
" style="fill:#1f77b4;"/>
   </g>
   <g id="patch_155">
    <path clip-path="url(#pfc029bb275)" d="M 313.566408 273.312 
L 315.180229 273.312 
L 315.180229 80.274162 
L 313.566408 80.274162 
z
" style="fill:#1f77b4;"/>
   </g>
   <g id="patch_156">
    <path clip-path="url(#pfc029bb275)" d="M 315.180229 273.312 
L 316.79405 273.312 
L 316.79405 92.105514 
L 315.180229 92.105514 
z
" style="fill:#1f77b4;"/>
   </g>
   <g id="patch_157">
    <path clip-path="url(#pfc029bb275)" d="M 316.79405 273.312 
L 318.407871 273.312 
L 318.407871 91.482811 
L 316.79405 91.482811 
z
" style="fill:#1f77b4;"/>
   </g>
   <g id="patch_158">
    <path clip-path="url(#pfc029bb275)" d="M 318.407871 273.312 
L 320.021692 273.312 
L 320.021692 95.84173 
L 318.407871 95.84173 
z
" style="fill:#1f77b4;"/>
   </g>
   <g id="patch_159">
    <path clip-path="url(#pfc029bb275)" d="M 320.021692 273.312 
L 321.635513 273.312 
L 321.635513 92.105514 
L 320.021692 92.105514 
z
" style="fill:#1f77b4;"/>
   </g>
   <g id="patch_160">
    <path clip-path="url(#pfc029bb275)" d="M 321.635513 273.312 
L 323.249334 273.312 
L 323.249334 66.574703 
L 321.635513 66.574703 
z
" style="fill:#1f77b4;"/>
   </g>
   <g id="patch_161">
    <path clip-path="url(#pfc029bb275)" d="M 323.249334 273.312 
L 324.863155 273.312 
L 324.863155 94.596324 
L 323.249334 94.596324 
z
" style="fill:#1f77b4;"/>
   </g>
   <g id="patch_162">
    <path clip-path="url(#pfc029bb275)" d="M 324.863155 273.312 
L 326.476976 273.312 
L 326.476976 52.252541 
L 324.863155 52.252541 
z
" style="fill:#1f77b4;"/>
   </g>
   <g id="patch_163">
    <path clip-path="url(#pfc029bb275)" d="M 326.476976 273.312 
L 328.090798 273.312 
L 328.090798 61.593081 
L 326.476976 61.593081 
z
" style="fill:#1f77b4;"/>
   </g>
   <g id="patch_164">
    <path clip-path="url(#pfc029bb275)" d="M 328.090798 273.312 
L 329.704619 273.312 
L 329.704619 84.010378 
L 328.090798 84.010378 
z
" style="fill:#1f77b4;"/>
   </g>
   <g id="patch_165">
    <path clip-path="url(#pfc029bb275)" d="M 329.704619 273.312 
L 331.31844 273.312 
L 331.31844 76.537946 
L 329.704619 76.537946 
z
" style="fill:#1f77b4;"/>
   </g>
   <g id="patch_166">
    <path clip-path="url(#pfc029bb275)" d="M 331.31844 273.312 
L 332.932261 273.312 
L 332.932261 83.387676 
L 331.31844 83.387676 
z
" style="fill:#1f77b4;"/>
   </g>
   <g id="patch_167">
    <path clip-path="url(#pfc029bb275)" d="M 332.932261 273.312 
L 334.546082 273.312 
L 334.546082 72.80173 
L 332.932261 72.80173 
z
" style="fill:#1f77b4;"/>
   </g>
   <g id="patch_168">
    <path clip-path="url(#pfc029bb275)" d="M 334.546082 273.312 
L 336.159903 273.312 
L 336.159903 71.556324 
L 334.546082 71.556324 
z
" style="fill:#1f77b4;"/>
   </g>
   <g id="patch_169">
    <path clip-path="url(#pfc029bb275)" d="M 336.159903 273.312 
L 337.773724 273.312 
L 337.773724 64.083892 
L 336.159903 64.083892 
z
" style="fill:#1f77b4;"/>
   </g>
   <g id="patch_170">
    <path clip-path="url(#pfc029bb275)" d="M 337.773724 273.312 
L 339.387545 273.312 
L 339.387545 65.329297 
L 337.773724 65.329297 
z
" style="fill:#1f77b4;"/>
   </g>
   <g id="patch_171">
    <path clip-path="url(#pfc029bb275)" d="M 339.387545 273.312 
L 341.001366 273.312 
L 341.001366 55.366054 
L 339.387545 55.366054 
z
" style="fill:#1f77b4;"/>
   </g>
   <g id="patch_172">
    <path clip-path="url(#pfc029bb275)" d="M 341.001366 273.312 
L 342.615187 273.312 
L 342.615187 77.160649 
L 341.001366 77.160649 
z
" style="fill:#1f77b4;"/>
   </g>
   <g id="patch_173">
    <path clip-path="url(#pfc029bb275)" d="M 342.615187 273.312 
L 344.229008 273.312 
L 344.229008 53.497946 
L 342.615187 53.497946 
z
" style="fill:#1f77b4;"/>
   </g>
   <g id="patch_174">
    <path clip-path="url(#pfc029bb275)" d="M 344.229008 273.312 
L 345.842829 273.312 
L 345.842829 52.252541 
L 344.229008 52.252541 
z
" style="fill:#1f77b4;"/>
   </g>
   <g id="patch_175">
    <path clip-path="url(#pfc029bb275)" d="M 345.842829 273.312 
L 347.45665 273.312 
L 347.45665 48.516324 
L 345.842829 48.516324 
z
" style="fill:#1f77b4;"/>
   </g>
   <g id="patch_176">
    <path clip-path="url(#pfc029bb275)" d="M 347.45665 273.312 
L 349.070471 273.312 
L 349.070471 60.347676 
L 347.45665 60.347676 
z
" style="fill:#1f77b4;"/>
   </g>
   <g id="patch_177">
    <path clip-path="url(#pfc029bb275)" d="M 349.070471 273.312 
L 350.684292 273.312 
L 350.684292 51.007135 
L 349.070471 51.007135 
z
" style="fill:#1f77b4;"/>
   </g>
   <g id="patch_178">
    <path clip-path="url(#pfc029bb275)" d="M 350.684292 273.312 
L 352.298114 273.312 
L 352.298114 47.893622 
L 350.684292 47.893622 
z
" style="fill:#1f77b4;"/>
   </g>
   <g id="patch_179">
    <path clip-path="url(#pfc029bb275)" d="M 352.298114 273.312 
L 353.911935 273.312 
L 353.911935 69.688216 
L 352.298114 69.688216 
z
" style="fill:#1f77b4;"/>
   </g>
   <g id="patch_180">
    <path clip-path="url(#pfc029bb275)" d="M 353.911935 273.312 
L 355.525756 273.312 
L 355.525756 47.893622 
L 353.911935 47.893622 
z
" style="fill:#1f77b4;"/>
   </g>
   <g id="patch_181">
    <path clip-path="url(#pfc029bb275)" d="M 355.525756 273.312 
L 357.139577 273.312 
L 357.139577 46.648216 
L 355.525756 46.648216 
z
" style="fill:#1f77b4;"/>
   </g>
   <g id="patch_182">
    <path clip-path="url(#pfc029bb275)" d="M 357.139577 273.312 
L 358.753398 273.312 
L 358.753398 41.666595 
L 357.139577 41.666595 
z
" style="fill:#1f77b4;"/>
   </g>
   <g id="patch_183">
    <path clip-path="url(#pfc029bb275)" d="M 358.753398 273.312 
L 360.367219 273.312 
L 360.367219 47.270919 
L 358.753398 47.270919 
z
" style="fill:#1f77b4;"/>
   </g>
   <g id="patch_184">
    <path clip-path="url(#pfc029bb275)" d="M 360.367219 273.312 
L 361.98104 273.312 
L 361.98104 47.893622 
L 360.367219 47.893622 
z
" style="fill:#1f77b4;"/>
   </g>
   <g id="patch_185">
    <path clip-path="url(#pfc029bb275)" d="M 361.98104 273.312 
L 363.594861 273.312 
L 363.594861 53.497946 
L 361.98104 53.497946 
z
" style="fill:#1f77b4;"/>
   </g>
   <g id="patch_186">
    <path clip-path="url(#pfc029bb275)" d="M 363.594861 273.312 
L 365.208682 273.312 
L 365.208682 29.835243 
L 363.594861 29.835243 
z
" style="fill:#1f77b4;"/>
   </g>
   <g id="patch_187">
    <path clip-path="url(#pfc029bb275)" d="M 365.208682 273.312 
L 366.822503 273.312 
L 366.822503 42.289297 
L 365.208682 42.289297 
z
" style="fill:#1f77b4;"/>
   </g>
   <g id="patch_188">
    <path clip-path="url(#pfc029bb275)" d="M 366.822503 273.312 
L 368.436324 273.312 
L 368.436324 54.120649 
L 366.822503 54.120649 
z
" style="fill:#1f77b4;"/>
   </g>
   <g id="patch_189">
    <path clip-path="url(#pfc029bb275)" d="M 368.436324 273.312 
L 370.050145 273.312 
L 370.050145 37.307676 
L 368.436324 37.307676 
z
" style="fill:#1f77b4;"/>
   </g>
   <g id="patch_190">
    <path clip-path="url(#pfc029bb275)" d="M 370.050145 273.312 
L 371.663966 273.312 
L 371.663966 22.362811 
L 370.050145 22.362811 
z
" style="fill:#1f77b4;"/>
   </g>
   <g id="patch_191">
    <path clip-path="url(#pfc029bb275)" d="M 371.663966 273.312 
L 373.277787 273.312 
L 373.277787 39.175784 
L 371.663966 39.175784 
z
" style="fill:#1f77b4;"/>
   </g>
   <g id="patch_192">
    <path clip-path="url(#pfc029bb275)" d="M 373.277787 273.312 
L 374.891608 273.312 
L 374.891608 36.684973 
L 373.277787 36.684973 
z
" style="fill:#1f77b4;"/>
   </g>
   <g id="patch_193">
    <path clip-path="url(#pfc029bb275)" d="M 374.891608 273.312 
L 376.50543 273.312 
L 376.50543 19.872 
L 374.891608 19.872 
z
" style="fill:#1f77b4;"/>
   </g>
   <g id="patch_194">
    <path clip-path="url(#pfc029bb275)" d="M 376.50543 273.312 
L 378.119251 273.312 
L 378.119251 32.948757 
L 376.50543 32.948757 
z
" style="fill:#1f77b4;"/>
   </g>
   <g id="patch_195">
    <path clip-path="url(#pfc029bb275)" d="M 378.119251 273.312 
L 379.733072 273.312 
L 379.733072 56.611459 
L 378.119251 56.611459 
z
" style="fill:#1f77b4;"/>
   </g>
   <g id="patch_196">
    <path clip-path="url(#pfc029bb275)" d="M 379.733072 273.312 
L 381.346893 273.312 
L 381.346893 42.289297 
L 379.733072 42.289297 
z
" style="fill:#1f77b4;"/>
   </g>
   <g id="patch_197">
    <path clip-path="url(#pfc029bb275)" d="M 381.346893 273.312 
L 382.960714 273.312 
L 382.960714 57.234162 
L 381.346893 57.234162 
z
" style="fill:#1f77b4;"/>
   </g>
   <g id="patch_198">
    <path clip-path="url(#pfc029bb275)" d="M 382.960714 273.312 
L 384.574535 273.312 
L 384.574535 44.780108 
L 382.960714 44.780108 
z
" style="fill:#1f77b4;"/>
   </g>
   <g id="patch_199">
    <path clip-path="url(#pfc029bb275)" d="M 384.574535 273.312 
L 386.188356 273.312 
L 386.188356 34.816865 
L 384.574535 34.816865 
z
" style="fill:#1f77b4;"/>
   </g>
   <g id="patch_200">
    <path clip-path="url(#pfc029bb275)" d="M 386.188356 273.312 
L 387.802177 273.312 
L 387.802177 47.270919 
L 386.188356 47.270919 
z
" style="fill:#1f77b4;"/>
   </g>
   <g id="patch_201">
    <path clip-path="url(#pfc029bb275)" d="M 387.802177 273.312 
L 389.415998 273.312 
L 389.415998 31.703351 
L 387.802177 31.703351 
z
" style="fill:#1f77b4;"/>
   </g>
   <g id="patch_202">
    <path clip-path="url(#pfc029bb275)" d="M 389.415998 273.312 
L 391.029819 273.312 
L 391.029819 32.326054 
L 389.415998 32.326054 
z
" style="fill:#1f77b4;"/>
   </g>
   <g id="matplotlib.axis_1">
    <g id="xtick_1">
     <g id="line2d_1">
      <defs>
       <path d="M 0 0 
L 0 3.5 
" id="m193005d55b" style="stroke:#000000;stroke-width:0.8;"/>
      </defs>
      <g>
       <use style="stroke:#000000;stroke-width:0.8;" x="66.376477" xlink:href="#m193005d55b" y="273.312"/>
      </g>
     </g>
     <g id="text_1">
      <!-- 0.0 -->
      <g transform="translate(58.424915 287.910437)scale(0.1 -0.1)">
       <defs>
        <path d="M 2034 4250 
Q 1547 4250 1301 3770 
Q 1056 3291 1056 2328 
Q 1056 1369 1301 889 
Q 1547 409 2034 409 
Q 2525 409 2770 889 
Q 3016 1369 3016 2328 
Q 3016 3291 2770 3770 
Q 2525 4250 2034 4250 
z
M 2034 4750 
Q 2819 4750 3233 4129 
Q 3647 3509 3647 2328 
Q 3647 1150 3233 529 
Q 2819 -91 2034 -91 
Q 1250 -91 836 529 
Q 422 1150 422 2328 
Q 422 3509 836 4129 
Q 1250 4750 2034 4750 
z
" id="DejaVuSans-30" transform="scale(0.015625)"/>
        <path d="M 684 794 
L 1344 794 
L 1344 0 
L 684 0 
L 684 794 
z
" id="DejaVuSans-2e" transform="scale(0.015625)"/>
       </defs>
       <use xlink:href="#DejaVuSans-30"/>
       <use x="63.623047" xlink:href="#DejaVuSans-2e"/>
       <use x="95.410156" xlink:href="#DejaVuSans-30"/>
      </g>
     </g>
    </g>
    <g id="xtick_2">
     <g id="line2d_2">
      <g>
       <use style="stroke:#000000;stroke-width:0.8;" x="131.307386" xlink:href="#m193005d55b" y="273.312"/>
      </g>
     </g>
     <g id="text_2">
      <!-- 0.2 -->
      <g transform="translate(123.355824 287.910437)scale(0.1 -0.1)">
       <defs>
        <path d="M 1228 531 
L 3431 531 
L 3431 0 
L 469 0 
L 469 531 
Q 828 903 1448 1529 
Q 2069 2156 2228 2338 
Q 2531 2678 2651 2914 
Q 2772 3150 2772 3378 
Q 2772 3750 2511 3984 
Q 2250 4219 1831 4219 
Q 1534 4219 1204 4116 
Q 875 4013 500 3803 
L 500 4441 
Q 881 4594 1212 4672 
Q 1544 4750 1819 4750 
Q 2544 4750 2975 4387 
Q 3406 4025 3406 3419 
Q 3406 3131 3298 2873 
Q 3191 2616 2906 2266 
Q 2828 2175 2409 1742 
Q 1991 1309 1228 531 
z
" id="DejaVuSans-32" transform="scale(0.015625)"/>
       </defs>
       <use xlink:href="#DejaVuSans-30"/>
       <use x="63.623047" xlink:href="#DejaVuSans-2e"/>
       <use x="95.410156" xlink:href="#DejaVuSans-32"/>
      </g>
     </g>
    </g>
    <g id="xtick_3">
     <g id="line2d_3">
      <g>
       <use style="stroke:#000000;stroke-width:0.8;" x="196.238295" xlink:href="#m193005d55b" y="273.312"/>
      </g>
     </g>
     <g id="text_3">
      <!-- 0.4 -->
      <g transform="translate(188.286733 287.910437)scale(0.1 -0.1)">
       <defs>
        <path d="M 2419 4116 
L 825 1625 
L 2419 1625 
L 2419 4116 
z
M 2253 4666 
L 3047 4666 
L 3047 1625 
L 3713 1625 
L 3713 1100 
L 3047 1100 
L 3047 0 
L 2419 0 
L 2419 1100 
L 313 1100 
L 313 1709 
L 2253 4666 
z
" id="DejaVuSans-34" transform="scale(0.015625)"/>
       </defs>
       <use xlink:href="#DejaVuSans-30"/>
       <use x="63.623047" xlink:href="#DejaVuSans-2e"/>
       <use x="95.410156" xlink:href="#DejaVuSans-34"/>
      </g>
     </g>
    </g>
    <g id="xtick_4">
     <g id="line2d_4">
      <g>
       <use style="stroke:#000000;stroke-width:0.8;" x="261.169205" xlink:href="#m193005d55b" y="273.312"/>
      </g>
     </g>
     <g id="text_4">
      <!-- 0.6 -->
      <g transform="translate(253.217642 287.910437)scale(0.1 -0.1)">
       <defs>
        <path d="M 2113 2584 
Q 1688 2584 1439 2293 
Q 1191 2003 1191 1497 
Q 1191 994 1439 701 
Q 1688 409 2113 409 
Q 2538 409 2786 701 
Q 3034 994 3034 1497 
Q 3034 2003 2786 2293 
Q 2538 2584 2113 2584 
z
M 3366 4563 
L 3366 3988 
Q 3128 4100 2886 4159 
Q 2644 4219 2406 4219 
Q 1781 4219 1451 3797 
Q 1122 3375 1075 2522 
Q 1259 2794 1537 2939 
Q 1816 3084 2150 3084 
Q 2853 3084 3261 2657 
Q 3669 2231 3669 1497 
Q 3669 778 3244 343 
Q 2819 -91 2113 -91 
Q 1303 -91 875 529 
Q 447 1150 447 2328 
Q 447 3434 972 4092 
Q 1497 4750 2381 4750 
Q 2619 4750 2861 4703 
Q 3103 4656 3366 4563 
z
" id="DejaVuSans-36" transform="scale(0.015625)"/>
       </defs>
       <use xlink:href="#DejaVuSans-30"/>
       <use x="63.623047" xlink:href="#DejaVuSans-2e"/>
       <use x="95.410156" xlink:href="#DejaVuSans-36"/>
      </g>
     </g>
    </g>
    <g id="xtick_5">
     <g id="line2d_5">
      <g>
       <use style="stroke:#000000;stroke-width:0.8;" x="326.100114" xlink:href="#m193005d55b" y="273.312"/>
      </g>
     </g>
     <g id="text_5">
      <!-- 0.8 -->
      <g transform="translate(318.148551 287.910437)scale(0.1 -0.1)">
       <defs>
        <path d="M 2034 2216 
Q 1584 2216 1326 1975 
Q 1069 1734 1069 1313 
Q 1069 891 1326 650 
Q 1584 409 2034 409 
Q 2484 409 2743 651 
Q 3003 894 3003 1313 
Q 3003 1734 2745 1975 
Q 2488 2216 2034 2216 
z
M 1403 2484 
Q 997 2584 770 2862 
Q 544 3141 544 3541 
Q 544 4100 942 4425 
Q 1341 4750 2034 4750 
Q 2731 4750 3128 4425 
Q 3525 4100 3525 3541 
Q 3525 3141 3298 2862 
Q 3072 2584 2669 2484 
Q 3125 2378 3379 2068 
Q 3634 1759 3634 1313 
Q 3634 634 3220 271 
Q 2806 -91 2034 -91 
Q 1263 -91 848 271 
Q 434 634 434 1313 
Q 434 1759 690 2068 
Q 947 2378 1403 2484 
z
M 1172 3481 
Q 1172 3119 1398 2916 
Q 1625 2713 2034 2713 
Q 2441 2713 2670 2916 
Q 2900 3119 2900 3481 
Q 2900 3844 2670 4047 
Q 2441 4250 2034 4250 
Q 1625 4250 1398 4047 
Q 1172 3844 1172 3481 
z
" id="DejaVuSans-38" transform="scale(0.015625)"/>
       </defs>
       <use xlink:href="#DejaVuSans-30"/>
       <use x="63.623047" xlink:href="#DejaVuSans-2e"/>
       <use x="95.410156" xlink:href="#DejaVuSans-38"/>
      </g>
     </g>
    </g>
    <g id="xtick_6">
     <g id="line2d_6">
      <g>
       <use style="stroke:#000000;stroke-width:0.8;" x="391.031023" xlink:href="#m193005d55b" y="273.312"/>
      </g>
     </g>
     <g id="text_6">
      <!-- 1.0 -->
      <g transform="translate(383.07946 287.910437)scale(0.1 -0.1)">
       <defs>
        <path d="M 794 531 
L 1825 531 
L 1825 4091 
L 703 3866 
L 703 4441 
L 1819 4666 
L 2450 4666 
L 2450 531 
L 3481 531 
L 3481 0 
L 794 0 
L 794 531 
z
" id="DejaVuSans-31" transform="scale(0.015625)"/>
       </defs>
       <use xlink:href="#DejaVuSans-31"/>
       <use x="63.623047" xlink:href="#DejaVuSans-2e"/>
       <use x="95.410156" xlink:href="#DejaVuSans-30"/>
      </g>
     </g>
    </g>
    <g id="text_7">
     <!-- Propagation direction -->
     <g transform="translate(175.221719 301.588562)scale(0.1 -0.1)">
      <defs>
       <path d="M 1259 4147 
L 1259 2394 
L 2053 2394 
Q 2494 2394 2734 2622 
Q 2975 2850 2975 3272 
Q 2975 3691 2734 3919 
Q 2494 4147 2053 4147 
L 1259 4147 
z
M 628 4666 
L 2053 4666 
Q 2838 4666 3239 4311 
Q 3641 3956 3641 3272 
Q 3641 2581 3239 2228 
Q 2838 1875 2053 1875 
L 1259 1875 
L 1259 0 
L 628 0 
L 628 4666 
z
" id="DejaVuSans-50" transform="scale(0.015625)"/>
       <path d="M 2631 2963 
Q 2534 3019 2420 3045 
Q 2306 3072 2169 3072 
Q 1681 3072 1420 2755 
Q 1159 2438 1159 1844 
L 1159 0 
L 581 0 
L 581 3500 
L 1159 3500 
L 1159 2956 
Q 1341 3275 1631 3429 
Q 1922 3584 2338 3584 
Q 2397 3584 2469 3576 
Q 2541 3569 2628 3553 
L 2631 2963 
z
" id="DejaVuSans-72" transform="scale(0.015625)"/>
       <path d="M 1959 3097 
Q 1497 3097 1228 2736 
Q 959 2375 959 1747 
Q 959 1119 1226 758 
Q 1494 397 1959 397 
Q 2419 397 2687 759 
Q 2956 1122 2956 1747 
Q 2956 2369 2687 2733 
Q 2419 3097 1959 3097 
z
M 1959 3584 
Q 2709 3584 3137 3096 
Q 3566 2609 3566 1747 
Q 3566 888 3137 398 
Q 2709 -91 1959 -91 
Q 1206 -91 779 398 
Q 353 888 353 1747 
Q 353 2609 779 3096 
Q 1206 3584 1959 3584 
z
" id="DejaVuSans-6f" transform="scale(0.015625)"/>
       <path d="M 1159 525 
L 1159 -1331 
L 581 -1331 
L 581 3500 
L 1159 3500 
L 1159 2969 
Q 1341 3281 1617 3432 
Q 1894 3584 2278 3584 
Q 2916 3584 3314 3078 
Q 3713 2572 3713 1747 
Q 3713 922 3314 415 
Q 2916 -91 2278 -91 
Q 1894 -91 1617 61 
Q 1341 213 1159 525 
z
M 3116 1747 
Q 3116 2381 2855 2742 
Q 2594 3103 2138 3103 
Q 1681 3103 1420 2742 
Q 1159 2381 1159 1747 
Q 1159 1113 1420 752 
Q 1681 391 2138 391 
Q 2594 391 2855 752 
Q 3116 1113 3116 1747 
z
" id="DejaVuSans-70" transform="scale(0.015625)"/>
       <path d="M 2194 1759 
Q 1497 1759 1228 1600 
Q 959 1441 959 1056 
Q 959 750 1161 570 
Q 1363 391 1709 391 
Q 2188 391 2477 730 
Q 2766 1069 2766 1631 
L 2766 1759 
L 2194 1759 
z
M 3341 1997 
L 3341 0 
L 2766 0 
L 2766 531 
Q 2569 213 2275 61 
Q 1981 -91 1556 -91 
Q 1019 -91 701 211 
Q 384 513 384 1019 
Q 384 1609 779 1909 
Q 1175 2209 1959 2209 
L 2766 2209 
L 2766 2266 
Q 2766 2663 2505 2880 
Q 2244 3097 1772 3097 
Q 1472 3097 1187 3025 
Q 903 2953 641 2809 
L 641 3341 
Q 956 3463 1253 3523 
Q 1550 3584 1831 3584 
Q 2591 3584 2966 3190 
Q 3341 2797 3341 1997 
z
" id="DejaVuSans-61" transform="scale(0.015625)"/>
       <path d="M 2906 1791 
Q 2906 2416 2648 2759 
Q 2391 3103 1925 3103 
Q 1463 3103 1205 2759 
Q 947 2416 947 1791 
Q 947 1169 1205 825 
Q 1463 481 1925 481 
Q 2391 481 2648 825 
Q 2906 1169 2906 1791 
z
M 3481 434 
Q 3481 -459 3084 -895 
Q 2688 -1331 1869 -1331 
Q 1566 -1331 1297 -1286 
Q 1028 -1241 775 -1147 
L 775 -588 
Q 1028 -725 1275 -790 
Q 1522 -856 1778 -856 
Q 2344 -856 2625 -561 
Q 2906 -266 2906 331 
L 2906 616 
Q 2728 306 2450 153 
Q 2172 0 1784 0 
Q 1141 0 747 490 
Q 353 981 353 1791 
Q 353 2603 747 3093 
Q 1141 3584 1784 3584 
Q 2172 3584 2450 3431 
Q 2728 3278 2906 2969 
L 2906 3500 
L 3481 3500 
L 3481 434 
z
" id="DejaVuSans-67" transform="scale(0.015625)"/>
       <path d="M 1172 4494 
L 1172 3500 
L 2356 3500 
L 2356 3053 
L 1172 3053 
L 1172 1153 
Q 1172 725 1289 603 
Q 1406 481 1766 481 
L 2356 481 
L 2356 0 
L 1766 0 
Q 1100 0 847 248 
Q 594 497 594 1153 
L 594 3053 
L 172 3053 
L 172 3500 
L 594 3500 
L 594 4494 
L 1172 4494 
z
" id="DejaVuSans-74" transform="scale(0.015625)"/>
       <path d="M 603 3500 
L 1178 3500 
L 1178 0 
L 603 0 
L 603 3500 
z
M 603 4863 
L 1178 4863 
L 1178 4134 
L 603 4134 
L 603 4863 
z
" id="DejaVuSans-69" transform="scale(0.015625)"/>
       <path d="M 3513 2113 
L 3513 0 
L 2938 0 
L 2938 2094 
Q 2938 2591 2744 2837 
Q 2550 3084 2163 3084 
Q 1697 3084 1428 2787 
Q 1159 2491 1159 1978 
L 1159 0 
L 581 0 
L 581 3500 
L 1159 3500 
L 1159 2956 
Q 1366 3272 1645 3428 
Q 1925 3584 2291 3584 
Q 2894 3584 3203 3211 
Q 3513 2838 3513 2113 
z
" id="DejaVuSans-6e" transform="scale(0.015625)"/>
       <path id="DejaVuSans-20" transform="scale(0.015625)"/>
       <path d="M 2906 2969 
L 2906 4863 
L 3481 4863 
L 3481 0 
L 2906 0 
L 2906 525 
Q 2725 213 2448 61 
Q 2172 -91 1784 -91 
Q 1150 -91 751 415 
Q 353 922 353 1747 
Q 353 2572 751 3078 
Q 1150 3584 1784 3584 
Q 2172 3584 2448 3432 
Q 2725 3281 2906 2969 
z
M 947 1747 
Q 947 1113 1208 752 
Q 1469 391 1925 391 
Q 2381 391 2643 752 
Q 2906 1113 2906 1747 
Q 2906 2381 2643 2742 
Q 2381 3103 1925 3103 
Q 1469 3103 1208 2742 
Q 947 2381 947 1747 
z
" id="DejaVuSans-64" transform="scale(0.015625)"/>
       <path d="M 3597 1894 
L 3597 1613 
L 953 1613 
Q 991 1019 1311 708 
Q 1631 397 2203 397 
Q 2534 397 2845 478 
Q 3156 559 3463 722 
L 3463 178 
Q 3153 47 2828 -22 
Q 2503 -91 2169 -91 
Q 1331 -91 842 396 
Q 353 884 353 1716 
Q 353 2575 817 3079 
Q 1281 3584 2069 3584 
Q 2775 3584 3186 3129 
Q 3597 2675 3597 1894 
z
M 3022 2063 
Q 3016 2534 2758 2815 
Q 2500 3097 2075 3097 
Q 1594 3097 1305 2825 
Q 1016 2553 972 2059 
L 3022 2063 
z
" id="DejaVuSans-65" transform="scale(0.015625)"/>
       <path d="M 3122 3366 
L 3122 2828 
Q 2878 2963 2633 3030 
Q 2388 3097 2138 3097 
Q 1578 3097 1268 2742 
Q 959 2388 959 1747 
Q 959 1106 1268 751 
Q 1578 397 2138 397 
Q 2388 397 2633 464 
Q 2878 531 3122 666 
L 3122 134 
Q 2881 22 2623 -34 
Q 2366 -91 2075 -91 
Q 1284 -91 818 406 
Q 353 903 353 1747 
Q 353 2603 823 3093 
Q 1294 3584 2113 3584 
Q 2378 3584 2631 3529 
Q 2884 3475 3122 3366 
z
" id="DejaVuSans-63" transform="scale(0.015625)"/>
      </defs>
      <use xlink:href="#DejaVuSans-50"/>
      <use x="58.552734" xlink:href="#DejaVuSans-72"/>
      <use x="97.416016" xlink:href="#DejaVuSans-6f"/>
      <use x="158.597656" xlink:href="#DejaVuSans-70"/>
      <use x="222.074219" xlink:href="#DejaVuSans-61"/>
      <use x="283.353516" xlink:href="#DejaVuSans-67"/>
      <use x="346.830078" xlink:href="#DejaVuSans-61"/>
      <use x="408.109375" xlink:href="#DejaVuSans-74"/>
      <use x="447.318359" xlink:href="#DejaVuSans-69"/>
      <use x="475.101562" xlink:href="#DejaVuSans-6f"/>
      <use x="536.283203" xlink:href="#DejaVuSans-6e"/>
      <use x="599.662109" xlink:href="#DejaVuSans-20"/>
      <use x="631.449219" xlink:href="#DejaVuSans-64"/>
      <use x="694.925781" xlink:href="#DejaVuSans-69"/>
      <use x="722.708984" xlink:href="#DejaVuSans-72"/>
      <use x="761.572266" xlink:href="#DejaVuSans-65"/>
      <use x="823.095703" xlink:href="#DejaVuSans-63"/>
      <use x="878.076172" xlink:href="#DejaVuSans-74"/>
      <use x="917.285156" xlink:href="#DejaVuSans-69"/>
      <use x="945.068359" xlink:href="#DejaVuSans-6f"/>
      <use x="1006.25" xlink:href="#DejaVuSans-6e"/>
     </g>
    </g>
   </g>
   <g id="matplotlib.axis_2">
    <g id="ytick_1">
     <g id="line2d_7">
      <defs>
       <path d="M 0 0 
L -3.5 0 
" id="mfc89d808c5" style="stroke:#000000;stroke-width:0.8;"/>
      </defs>
      <g>
       <use style="stroke:#000000;stroke-width:0.8;" x="50.14375" xlink:href="#mfc89d808c5" y="273.312"/>
      </g>
     </g>
     <g id="text_8">
      <!-- 0.00 -->
      <g transform="translate(20.878125 277.111219)scale(0.1 -0.1)">
       <use xlink:href="#DejaVuSans-30"/>
       <use x="63.623047" xlink:href="#DejaVuSans-2e"/>
       <use x="95.410156" xlink:href="#DejaVuSans-30"/>
       <use x="159.033203" xlink:href="#DejaVuSans-30"/>
      </g>
     </g>
    </g>
    <g id="ytick_2">
     <g id="line2d_8">
      <g>
       <use style="stroke:#000000;stroke-width:0.8;" x="50.14375" xlink:href="#mfc89d808c5" y="242.358152"/>
      </g>
     </g>
     <g id="text_9">
      <!-- 0.25 -->
      <g transform="translate(20.878125 246.157371)scale(0.1 -0.1)">
       <defs>
        <path d="M 691 4666 
L 3169 4666 
L 3169 4134 
L 1269 4134 
L 1269 2991 
Q 1406 3038 1543 3061 
Q 1681 3084 1819 3084 
Q 2600 3084 3056 2656 
Q 3513 2228 3513 1497 
Q 3513 744 3044 326 
Q 2575 -91 1722 -91 
Q 1428 -91 1123 -41 
Q 819 9 494 109 
L 494 744 
Q 775 591 1075 516 
Q 1375 441 1709 441 
Q 2250 441 2565 725 
Q 2881 1009 2881 1497 
Q 2881 1984 2565 2268 
Q 2250 2553 1709 2553 
Q 1456 2553 1204 2497 
Q 953 2441 691 2322 
L 691 4666 
z
" id="DejaVuSans-35" transform="scale(0.015625)"/>
       </defs>
       <use xlink:href="#DejaVuSans-30"/>
       <use x="63.623047" xlink:href="#DejaVuSans-2e"/>
       <use x="95.410156" xlink:href="#DejaVuSans-32"/>
       <use x="159.033203" xlink:href="#DejaVuSans-35"/>
      </g>
     </g>
    </g>
    <g id="ytick_3">
     <g id="line2d_9">
      <g>
       <use style="stroke:#000000;stroke-width:0.8;" x="50.14375" xlink:href="#mfc89d808c5" y="211.404304"/>
      </g>
     </g>
     <g id="text_10">
      <!-- 0.50 -->
      <g transform="translate(20.878125 215.203523)scale(0.1 -0.1)">
       <use xlink:href="#DejaVuSans-30"/>
       <use x="63.623047" xlink:href="#DejaVuSans-2e"/>
       <use x="95.410156" xlink:href="#DejaVuSans-35"/>
       <use x="159.033203" xlink:href="#DejaVuSans-30"/>
      </g>
     </g>
    </g>
    <g id="ytick_4">
     <g id="line2d_10">
      <g>
       <use style="stroke:#000000;stroke-width:0.8;" x="50.14375" xlink:href="#mfc89d808c5" y="180.450457"/>
      </g>
     </g>
     <g id="text_11">
      <!-- 0.75 -->
      <g transform="translate(20.878125 184.249675)scale(0.1 -0.1)">
       <defs>
        <path d="M 525 4666 
L 3525 4666 
L 3525 4397 
L 1831 0 
L 1172 0 
L 2766 4134 
L 525 4134 
L 525 4666 
z
" id="DejaVuSans-37" transform="scale(0.015625)"/>
       </defs>
       <use xlink:href="#DejaVuSans-30"/>
       <use x="63.623047" xlink:href="#DejaVuSans-2e"/>
       <use x="95.410156" xlink:href="#DejaVuSans-37"/>
       <use x="159.033203" xlink:href="#DejaVuSans-35"/>
      </g>
     </g>
    </g>
    <g id="ytick_5">
     <g id="line2d_11">
      <g>
       <use style="stroke:#000000;stroke-width:0.8;" x="50.14375" xlink:href="#mfc89d808c5" y="149.496609"/>
      </g>
     </g>
     <g id="text_12">
      <!-- 1.00 -->
      <g transform="translate(20.878125 153.295828)scale(0.1 -0.1)">
       <use xlink:href="#DejaVuSans-31"/>
       <use x="63.623047" xlink:href="#DejaVuSans-2e"/>
       <use x="95.410156" xlink:href="#DejaVuSans-30"/>
       <use x="159.033203" xlink:href="#DejaVuSans-30"/>
      </g>
     </g>
    </g>
    <g id="ytick_6">
     <g id="line2d_12">
      <g>
       <use style="stroke:#000000;stroke-width:0.8;" x="50.14375" xlink:href="#mfc89d808c5" y="118.542761"/>
      </g>
     </g>
     <g id="text_13">
      <!-- 1.25 -->
      <g transform="translate(20.878125 122.34198)scale(0.1 -0.1)">
       <use xlink:href="#DejaVuSans-31"/>
       <use x="63.623047" xlink:href="#DejaVuSans-2e"/>
       <use x="95.410156" xlink:href="#DejaVuSans-32"/>
       <use x="159.033203" xlink:href="#DejaVuSans-35"/>
      </g>
     </g>
    </g>
    <g id="ytick_7">
     <g id="line2d_13">
      <g>
       <use style="stroke:#000000;stroke-width:0.8;" x="50.14375" xlink:href="#mfc89d808c5" y="87.588913"/>
      </g>
     </g>
     <g id="text_14">
      <!-- 1.50 -->
      <g transform="translate(20.878125 91.388132)scale(0.1 -0.1)">
       <use xlink:href="#DejaVuSans-31"/>
       <use x="63.623047" xlink:href="#DejaVuSans-2e"/>
       <use x="95.410156" xlink:href="#DejaVuSans-35"/>
       <use x="159.033203" xlink:href="#DejaVuSans-30"/>
      </g>
     </g>
    </g>
    <g id="ytick_8">
     <g id="line2d_14">
      <g>
       <use style="stroke:#000000;stroke-width:0.8;" x="50.14375" xlink:href="#mfc89d808c5" y="56.635065"/>
      </g>
     </g>
     <g id="text_15">
      <!-- 1.75 -->
      <g transform="translate(20.878125 60.434284)scale(0.1 -0.1)">
       <use xlink:href="#DejaVuSans-31"/>
       <use x="63.623047" xlink:href="#DejaVuSans-2e"/>
       <use x="95.410156" xlink:href="#DejaVuSans-37"/>
       <use x="159.033203" xlink:href="#DejaVuSans-35"/>
      </g>
     </g>
    </g>
    <g id="ytick_9">
     <g id="line2d_15">
      <g>
       <use style="stroke:#000000;stroke-width:0.8;" x="50.14375" xlink:href="#mfc89d808c5" y="25.681218"/>
      </g>
     </g>
     <g id="text_16">
      <!-- 2.00 -->
      <g transform="translate(20.878125 29.480436)scale(0.1 -0.1)">
       <use xlink:href="#DejaVuSans-32"/>
       <use x="63.623047" xlink:href="#DejaVuSans-2e"/>
       <use x="95.410156" xlink:href="#DejaVuSans-30"/>
       <use x="159.033203" xlink:href="#DejaVuSans-30"/>
      </g>
     </g>
    </g>
    <g id="text_17">
     <!-- Probability density -->
     <g transform="translate(14.798438 186.606781)rotate(-90)scale(0.1 -0.1)">
      <defs>
       <path d="M 3116 1747 
Q 3116 2381 2855 2742 
Q 2594 3103 2138 3103 
Q 1681 3103 1420 2742 
Q 1159 2381 1159 1747 
Q 1159 1113 1420 752 
Q 1681 391 2138 391 
Q 2594 391 2855 752 
Q 3116 1113 3116 1747 
z
M 1159 2969 
Q 1341 3281 1617 3432 
Q 1894 3584 2278 3584 
Q 2916 3584 3314 3078 
Q 3713 2572 3713 1747 
Q 3713 922 3314 415 
Q 2916 -91 2278 -91 
Q 1894 -91 1617 61 
Q 1341 213 1159 525 
L 1159 0 
L 581 0 
L 581 4863 
L 1159 4863 
L 1159 2969 
z
" id="DejaVuSans-62" transform="scale(0.015625)"/>
       <path d="M 603 4863 
L 1178 4863 
L 1178 0 
L 603 0 
L 603 4863 
z
" id="DejaVuSans-6c" transform="scale(0.015625)"/>
       <path d="M 2059 -325 
Q 1816 -950 1584 -1140 
Q 1353 -1331 966 -1331 
L 506 -1331 
L 506 -850 
L 844 -850 
Q 1081 -850 1212 -737 
Q 1344 -625 1503 -206 
L 1606 56 
L 191 3500 
L 800 3500 
L 1894 763 
L 2988 3500 
L 3597 3500 
L 2059 -325 
z
" id="DejaVuSans-79" transform="scale(0.015625)"/>
       <path d="M 2834 3397 
L 2834 2853 
Q 2591 2978 2328 3040 
Q 2066 3103 1784 3103 
Q 1356 3103 1142 2972 
Q 928 2841 928 2578 
Q 928 2378 1081 2264 
Q 1234 2150 1697 2047 
L 1894 2003 
Q 2506 1872 2764 1633 
Q 3022 1394 3022 966 
Q 3022 478 2636 193 
Q 2250 -91 1575 -91 
Q 1294 -91 989 -36 
Q 684 19 347 128 
L 347 722 
Q 666 556 975 473 
Q 1284 391 1588 391 
Q 1994 391 2212 530 
Q 2431 669 2431 922 
Q 2431 1156 2273 1281 
Q 2116 1406 1581 1522 
L 1381 1569 
Q 847 1681 609 1914 
Q 372 2147 372 2553 
Q 372 3047 722 3315 
Q 1072 3584 1716 3584 
Q 2034 3584 2315 3537 
Q 2597 3491 2834 3397 
z
" id="DejaVuSans-73" transform="scale(0.015625)"/>
      </defs>
      <use xlink:href="#DejaVuSans-50"/>
      <use x="58.552734" xlink:href="#DejaVuSans-72"/>
      <use x="97.416016" xlink:href="#DejaVuSans-6f"/>
      <use x="158.597656" xlink:href="#DejaVuSans-62"/>
      <use x="222.074219" xlink:href="#DejaVuSans-61"/>
      <use x="283.353516" xlink:href="#DejaVuSans-62"/>
      <use x="346.830078" xlink:href="#DejaVuSans-69"/>
      <use x="374.613281" xlink:href="#DejaVuSans-6c"/>
      <use x="402.396484" xlink:href="#DejaVuSans-69"/>
      <use x="430.179688" xlink:href="#DejaVuSans-74"/>
      <use x="469.388672" xlink:href="#DejaVuSans-79"/>
      <use x="528.568359" xlink:href="#DejaVuSans-20"/>
      <use x="560.355469" xlink:href="#DejaVuSans-64"/>
      <use x="623.832031" xlink:href="#DejaVuSans-65"/>
      <use x="685.355469" xlink:href="#DejaVuSans-6e"/>
      <use x="748.734375" xlink:href="#DejaVuSans-73"/>
      <use x="800.833984" xlink:href="#DejaVuSans-69"/>
      <use x="828.617188" xlink:href="#DejaVuSans-74"/>
      <use x="867.826172" xlink:href="#DejaVuSans-79"/>
     </g>
    </g>
   </g>
   <g id="line2d_16">
    <path clip-path="url(#pfc029bb275)" d="M 66.376477 273.312 
L 391.031023 25.681218 
L 391.031023 25.681218 
" style="fill:none;stroke:#ff7f0e;stroke-linecap:square;stroke-width:1.5;"/>
   </g>
   <g id="patch_203">
    <path d="M 50.14375 273.312 
L 50.14375 7.2 
" style="fill:none;stroke:#000000;stroke-linecap:square;stroke-linejoin:miter;stroke-width:0.8;"/>
   </g>
   <g id="patch_204">
    <path d="M 407.26375 273.312 
L 407.26375 7.2 
" style="fill:none;stroke:#000000;stroke-linecap:square;stroke-linejoin:miter;stroke-width:0.8;"/>
   </g>
   <g id="patch_205">
    <path d="M 50.14375 273.312 
L 407.26375 273.312 
" style="fill:none;stroke:#000000;stroke-linecap:square;stroke-linejoin:miter;stroke-width:0.8;"/>
   </g>
   <g id="patch_206">
    <path d="M 50.14375 7.2 
L 407.26375 7.2 
" style="fill:none;stroke:#000000;stroke-linecap:square;stroke-linejoin:miter;stroke-width:0.8;"/>
   </g>
  </g>
 </g>
 <defs>
  <clipPath id="pfc029bb275">
   <rect height="266.112" width="357.12" x="50.14375" y="7.2"/>
  </clipPath>
 </defs>
</svg>
